<svg width="140" height="141" viewBox="0 0 140 141" fill="none" xmlns="http://www.w3.org/2000/svg">
<mask id="path-1-outside-1_120_15" maskUnits="userSpaceOnUse" x="48.5889" y="114.197" width="22.471" height="28.8648" fill="black">
<rect fill="white" x="48.5889" y="114.197" width="22.471" height="28.8648"/>
<path d="M53.9597 132.989C53.8869 134.074 54.2426 134.993 55.0266 135.747C55.8106 136.5 56.8518 136.998 58.1504 137.241C59.0998 137.418 59.9593 137.42 60.7288 137.246C61.4914 137.071 62.1218 136.751 62.6203 136.288C63.1117 135.824 63.4214 135.249 63.5493 134.565C63.6563 133.993 63.6122 133.475 63.4169 133.012C63.2133 132.555 62.9206 132.15 62.5386 131.797C62.1554 131.451 61.7427 131.146 61.3006 130.883C60.8572 130.626 60.4463 130.409 60.0679 130.23L57.9994 129.236C57.4683 128.985 56.8848 128.666 56.2489 128.28C55.606 127.893 55.0122 127.417 54.4674 126.852C53.9143 126.294 53.4964 125.63 53.2137 124.862C52.931 124.094 52.8836 123.207 53.0716 122.202C53.2882 121.043 53.7876 120.053 54.5699 119.231C55.3452 118.408 56.3638 117.828 57.6258 117.494C58.8808 117.157 60.3321 117.143 61.9797 117.451C63.5156 117.738 64.7992 118.235 65.8306 118.941C66.8549 119.645 67.6054 120.501 68.0819 121.507C68.5515 122.513 68.7185 123.61 68.5831 124.798L65.9022 124.297C65.9838 123.474 65.8368 122.753 65.4613 122.134C65.0774 121.52 64.5431 121.016 63.8584 120.62C63.1653 120.231 62.393 119.956 61.5412 119.797C60.5499 119.612 59.6297 119.606 58.7808 119.78C57.9306 119.96 57.2209 120.297 56.6518 120.791C56.0815 121.291 55.7232 121.932 55.577 122.714C55.4439 123.426 55.5345 124.043 55.849 124.564C56.1634 125.085 56.6191 125.546 57.2162 125.946C57.8132 126.347 58.4692 126.723 59.184 127.073L61.682 128.32C63.2675 129.115 64.4654 130.051 65.2758 131.127C66.0861 132.203 66.3562 133.464 66.0861 134.909C65.8616 136.11 65.3412 137.097 64.5249 137.869C63.7003 138.647 62.6901 139.181 61.4944 139.47C60.2904 139.765 59.0043 139.785 57.6359 139.529C56.2536 139.271 55.0712 138.793 54.0888 138.096C53.105 137.407 52.3785 136.577 51.9094 135.608C51.4334 134.638 51.279 133.608 51.4464 132.52L53.9597 132.989Z"/>
</mask>
<path d="M53.9597 132.989C53.8869 134.074 54.2426 134.993 55.0266 135.747C55.8106 136.5 56.8518 136.998 58.1504 137.241C59.0998 137.418 59.9593 137.42 60.7288 137.246C61.4914 137.071 62.1218 136.751 62.6203 136.288C63.1117 135.824 63.4214 135.249 63.5493 134.565C63.6563 133.993 63.6122 133.475 63.4169 133.012C63.2133 132.555 62.9206 132.15 62.5386 131.797C62.1554 131.451 61.7427 131.146 61.3006 130.883C60.8572 130.626 60.4463 130.409 60.0679 130.23L57.9994 129.236C57.4683 128.985 56.8848 128.666 56.2489 128.28C55.606 127.893 55.0122 127.417 54.4674 126.852C53.9143 126.294 53.4964 125.63 53.2137 124.862C52.931 124.094 52.8836 123.207 53.0716 122.202C53.2882 121.043 53.7876 120.053 54.5699 119.231C55.3452 118.408 56.3638 117.828 57.6258 117.494C58.8808 117.157 60.3321 117.143 61.9797 117.451C63.5156 117.738 64.7992 118.235 65.8306 118.941C66.8549 119.645 67.6054 120.501 68.0819 121.507C68.5515 122.513 68.7185 123.61 68.5831 124.798L65.9022 124.297C65.9838 123.474 65.8368 122.753 65.4613 122.134C65.0774 121.52 64.5431 121.016 63.8584 120.62C63.1653 120.231 62.393 119.956 61.5412 119.797C60.5499 119.612 59.6297 119.606 58.7808 119.78C57.9306 119.96 57.2209 120.297 56.6518 120.791C56.0815 121.291 55.7232 121.932 55.577 122.714C55.4439 123.426 55.5345 124.043 55.849 124.564C56.1634 125.085 56.6191 125.546 57.2162 125.946C57.8132 126.347 58.4692 126.723 59.184 127.073L61.682 128.32C63.2675 129.115 64.4654 130.051 65.2758 131.127C66.0861 132.203 66.3562 133.464 66.0861 134.909C65.8616 136.11 65.3412 137.097 64.5249 137.869C63.7003 138.647 62.6901 139.181 61.4944 139.47C60.2904 139.765 59.0043 139.785 57.6359 139.529C56.2536 139.271 55.0712 138.793 54.0888 138.096C53.105 137.407 52.3785 136.577 51.9094 135.608C51.4334 134.638 51.279 133.608 51.4464 132.52L53.9597 132.989Z" fill="#FFEFDA"/>
<path d="M53.9597 132.989L54.9574 133.056L55.0168 132.17L54.1434 132.006L53.9597 132.989ZM55.0266 135.747L55.7195 135.026L55.7195 135.026L55.0266 135.747ZM60.7288 137.246L60.9495 138.221L60.953 138.221L60.7288 137.246ZM62.6203 136.288L63.301 137.021L63.3072 137.015L62.6203 136.288ZM63.4169 133.012L64.3382 132.624L64.3344 132.614L64.3304 132.605L63.4169 133.012ZM62.5386 131.797L63.2176 131.063L63.209 131.055L62.5386 131.797ZM61.3006 130.883L61.8123 130.023L61.801 130.017L61.3006 130.883ZM60.0679 130.23L59.6349 131.131L59.6401 131.133L60.0679 130.23ZM57.9994 129.236L58.4324 128.334L58.4267 128.332L57.9994 129.236ZM56.2489 128.28L56.768 127.425L56.7651 127.424L56.2489 128.28ZM54.4674 126.852L55.1869 126.158L55.178 126.149L54.4674 126.852ZM53.2137 124.862L52.2753 125.208L52.2753 125.208L53.2137 124.862ZM54.5699 119.231L55.2943 119.92L55.2979 119.916L54.5699 119.231ZM57.6258 117.494L57.8823 118.46L57.8846 118.46L57.6258 117.494ZM65.8306 118.941L66.3972 118.117L66.3953 118.115L65.8306 118.941ZM68.0819 121.507L68.988 121.084L68.9858 121.08L68.0819 121.507ZM68.5831 124.798L68.3993 125.781L69.455 125.979L69.5766 124.912L68.5831 124.798ZM65.9022 124.297L64.9071 124.198L64.8166 125.112L65.7185 125.28L65.9022 124.297ZM65.4613 122.134L66.3164 121.615L66.3091 121.604L65.4613 122.134ZM63.8584 120.62L64.3584 119.754L64.3485 119.749L63.8584 120.62ZM58.7808 119.78L58.5804 118.8L58.573 118.801L58.7808 119.78ZM56.6518 120.791L55.9968 120.035L55.9924 120.039L56.6518 120.791ZM55.849 124.564L54.9927 125.08L54.9927 125.08L55.849 124.564ZM57.2162 125.946L57.7734 125.116L57.7734 125.116L57.2162 125.946ZM59.184 127.073L59.6308 126.178L59.6242 126.175L59.184 127.073ZM61.682 128.32L62.1302 127.426L62.1288 127.426L61.682 128.32ZM65.2758 131.127L66.0746 130.526L66.0746 130.526L65.2758 131.127ZM64.5249 137.869L65.2111 138.596L65.2121 138.595L64.5249 137.869ZM61.4944 139.47L61.2591 138.498L61.2563 138.499L61.4944 139.47ZM54.0888 138.096L54.6672 137.281L54.6628 137.278L54.0888 138.096ZM51.9094 135.608L52.8096 135.173L52.8072 135.168L51.9094 135.608ZM51.4464 132.52L51.6301 131.537L50.6149 131.347L50.458 132.368L51.4464 132.52ZM52.9619 132.922C52.8694 134.302 53.3367 135.509 54.3336 136.468L55.7195 135.026C55.1485 134.477 54.9045 133.846 54.9574 133.056L52.9619 132.922ZM54.3336 136.468C55.2859 137.383 56.518 137.953 57.9666 138.224L58.3341 136.258C57.1857 136.043 56.3353 135.617 55.7195 135.026L54.3336 136.468ZM57.9666 138.224C59.0207 138.421 60.0208 138.431 60.9495 138.221L60.5082 136.271C59.8978 136.409 59.1789 136.416 58.3341 136.258L57.9666 138.224ZM60.953 138.221C61.8603 138.012 62.656 137.62 63.301 137.021L61.9395 135.556C61.5877 135.883 61.1224 136.129 60.5047 136.271L60.953 138.221ZM63.3072 137.015C63.957 136.401 64.3667 135.634 64.5323 134.749L62.5663 134.381C62.476 134.864 62.2665 135.247 61.9334 135.561L63.3072 137.015ZM64.5323 134.749C64.6694 134.015 64.6213 133.294 64.3382 132.624L62.4955 133.401C62.603 133.656 62.6432 133.97 62.5663 134.381L64.5323 134.749ZM64.3304 132.605C64.0695 132.02 63.6951 131.504 63.2175 131.063L61.8597 132.531C62.1461 132.796 62.3572 133.091 62.5034 133.419L64.3304 132.605ZM63.209 131.055C62.777 130.665 62.3112 130.321 61.8122 130.023L60.7889 131.742C61.1742 131.971 61.5338 132.237 61.8683 132.539L63.209 131.055ZM61.801 130.017C61.3389 129.75 60.9036 129.519 60.4958 129.326L59.6401 131.133C59.989 131.299 60.3754 131.503 60.8002 131.748L61.801 130.017ZM60.5009 129.328L58.4324 128.335L57.5664 130.137L59.635 131.131L60.5009 129.328ZM58.4267 128.332C57.934 128.099 57.3816 127.798 56.768 127.425L55.7298 129.135C56.388 129.535 57.0026 129.871 57.5721 130.14L58.4267 128.332ZM56.7651 127.424C56.2 127.083 55.6739 126.662 55.1868 126.158L53.748 127.547C54.3505 128.171 55.012 128.702 55.7327 129.137L56.7651 127.424ZM55.178 126.149C54.7298 125.696 54.3875 125.156 54.1522 124.517L52.2753 125.208C52.6053 126.105 53.0988 126.892 53.7568 127.556L55.178 126.149ZM54.1522 124.517C53.9455 123.955 53.8915 123.258 54.0545 122.386L52.0886 122.018C51.8757 123.157 51.9165 124.233 52.2753 125.208L54.1522 124.517ZM54.0545 122.386C54.2371 121.409 54.6507 120.597 55.2943 119.92L53.8455 118.541C52.9246 119.509 52.3393 120.677 52.0886 122.018L54.0545 122.386ZM55.2979 119.916C55.9265 119.249 56.7722 118.755 57.8823 118.46L57.3693 116.527C55.9554 116.902 54.7638 117.566 53.8419 118.545L55.2979 119.916ZM57.8846 118.46C58.9596 118.172 60.2542 118.146 61.796 118.434L62.1635 116.468C60.41 116.141 58.802 116.143 57.367 116.528L57.8846 118.46ZM61.796 118.434C63.2284 118.702 64.374 119.156 65.2658 119.766L66.3953 118.115C65.2244 117.314 63.8028 116.775 62.1635 116.468L61.796 118.434ZM65.2639 119.765C66.1602 120.381 66.7855 121.106 67.1781 121.935L68.9858 121.08C68.4252 119.895 67.5497 118.909 66.3972 118.117L65.2639 119.765ZM67.1759 121.931C67.5612 122.756 67.7058 123.665 67.5895 124.685L69.5766 124.912C69.7313 123.554 69.5418 122.27 68.988 121.084L67.1759 121.931ZM68.7668 123.815L66.086 123.314L65.7185 125.28L68.3993 125.781L68.7668 123.815ZM66.8974 124.396C66.9971 123.389 66.8197 122.445 66.3163 121.615L64.6062 122.652C64.8539 123.061 64.9705 123.559 64.9071 124.198L66.8974 124.396ZM66.3091 121.604C65.8307 120.839 65.1714 120.224 64.3584 119.754L63.3584 121.486C63.9149 121.808 64.3242 122.202 64.6135 122.664L66.3091 121.604ZM64.3485 119.749C63.5519 119.301 62.6746 118.992 61.725 118.814L61.3575 120.78C62.1113 120.921 62.7788 121.161 63.3683 121.492L64.3485 119.749ZM61.725 118.814C60.6271 118.609 59.5749 118.596 58.5804 118.8L58.9812 120.759C59.6845 120.615 60.4727 120.615 61.3575 120.78L61.725 118.814ZM58.573 118.801C57.583 119.012 56.7123 119.415 55.9968 120.035L57.3069 121.546C57.7296 121.18 58.2782 120.909 58.9887 120.758L58.573 118.801ZM55.9924 120.039C55.245 120.694 54.7792 121.539 54.594 122.53L56.56 122.898C56.6671 122.324 56.9179 121.887 57.3113 121.542L55.9924 120.039ZM54.594 122.53C54.4249 123.435 54.5283 124.311 54.9927 125.08L56.7052 124.047C56.5408 123.775 56.4629 123.417 56.56 122.898L54.594 122.53ZM54.9927 125.08C55.3951 125.747 55.9623 126.309 56.659 126.777L57.7734 125.116C57.2759 124.782 56.9316 124.423 56.7052 124.047L54.9927 125.08ZM56.659 126.777C57.2972 127.205 57.9928 127.603 58.7439 127.971L59.6242 126.175C58.9456 125.842 58.3292 125.489 57.7734 125.116L56.659 126.777ZM58.7373 127.968L61.2353 129.215L62.1288 127.426L59.6307 126.178L58.7373 127.968ZM61.2338 129.214C62.7233 129.961 63.7839 130.808 64.4769 131.729L66.0746 130.526C65.147 129.293 63.8117 128.269 62.1302 127.426L61.2338 129.214ZM64.4769 131.729C65.1019 132.559 65.3269 133.528 65.1031 134.726L67.069 135.093C67.3855 133.4 67.0703 131.848 66.0746 130.526L64.4769 131.729ZM65.1031 134.726C64.9139 135.738 64.487 136.528 63.8377 137.142L65.2121 138.595C66.1954 137.665 66.8093 136.482 67.069 135.093L65.1031 134.726ZM63.8387 137.141C63.1512 137.79 62.3007 138.246 61.2591 138.498L61.7297 140.442C63.0796 140.115 64.2494 139.504 65.2111 138.596L63.8387 137.141ZM61.2563 138.499C60.2066 138.756 59.0654 138.779 57.8197 138.546L57.4522 140.512C58.9431 140.791 60.3743 140.774 61.7325 140.441L61.2563 138.499ZM57.8197 138.546C56.5558 138.31 55.5136 137.881 54.6672 137.281L53.5103 138.912C54.6289 139.705 55.9514 140.231 57.4522 140.512L57.8197 138.546ZM54.6628 137.278C53.8021 136.674 53.1961 135.971 52.8095 135.173L51.0093 136.044C51.561 137.184 52.4079 138.139 53.5147 138.915L54.6628 137.278ZM52.8072 135.168C52.423 134.385 52.2978 133.562 52.4348 132.671L50.458 132.368C50.2602 133.654 50.4437 134.891 51.0116 136.049L52.8072 135.168ZM51.2626 133.502L53.7759 133.972L54.1434 132.006L51.6301 131.537L51.2626 133.502Z" fill="#FFEFDA" mask="url(#path-1-outside-1_120_15)"/>
<mask id="path-3-outside-2_120_15" maskUnits="userSpaceOnUse" x="27.9542" y="104.868" width="24.9823" height="25.9537" fill="black">
<rect fill="white" x="27.9542" y="104.868" width="24.9823" height="25.9537"/>
<path d="M44.5966 110.605C45.9009 111.413 46.8333 112.416 47.394 113.615C47.9546 114.814 48.1539 116.111 47.9919 117.506C47.8299 118.901 47.3189 120.293 46.459 121.682C45.5841 123.095 44.5523 124.181 43.3638 124.941C42.1654 125.702 40.9095 126.098 39.5959 126.129C38.2725 126.161 36.9828 125.789 35.7268 125.011C34.7486 124.405 33.9791 123.678 33.4185 122.83C32.8578 121.982 32.5288 121.076 32.4314 120.114C32.334 119.151 32.4941 118.198 32.9117 117.254L35.0493 118.577C34.8198 119.312 34.8344 120.098 35.0931 120.935C35.3421 121.774 35.9375 122.485 36.8795 123.068C37.7129 123.584 38.5781 123.819 39.4753 123.774C40.3627 123.73 41.2246 123.424 42.0609 122.856C42.8874 122.29 43.6259 121.482 44.2765 120.431C44.942 119.356 45.3524 118.316 45.5078 117.309C45.6571 116.299 45.5573 115.381 45.2083 114.555C44.8532 113.725 44.253 113.049 43.4076 112.525C42.8521 112.181 42.288 111.966 41.7155 111.879C41.143 111.791 40.5875 111.832 40.0492 112C39.5109 112.167 39.0183 112.464 38.5713 112.889L36.4337 111.565C37.063 110.819 37.8199 110.264 38.7045 109.901C39.5793 109.541 40.5258 109.409 41.544 109.504C42.5525 109.603 43.57 109.969 44.5966 110.605Z"/>
</mask>
<path d="M44.5966 110.605C45.9009 111.413 46.8333 112.416 47.394 113.615C47.9546 114.814 48.1539 116.111 47.9919 117.506C47.8299 118.901 47.3189 120.293 46.459 121.682C45.5841 123.095 44.5523 124.181 43.3638 124.941C42.1654 125.702 40.9095 126.098 39.5959 126.129C38.2725 126.161 36.9828 125.789 35.7268 125.011C34.7486 124.405 33.9791 123.678 33.4185 122.83C32.8578 121.982 32.5288 121.076 32.4314 120.114C32.334 119.151 32.4941 118.198 32.9117 117.254L35.0493 118.577C34.8198 119.312 34.8344 120.098 35.0931 120.935C35.3421 121.774 35.9375 122.485 36.8795 123.068C37.7129 123.584 38.5781 123.819 39.4753 123.774C40.3627 123.73 41.2246 123.424 42.0609 122.856C42.8874 122.29 43.6259 121.482 44.2765 120.431C44.942 119.356 45.3524 118.316 45.5078 117.309C45.6571 116.299 45.5573 115.381 45.2083 114.555C44.8532 113.725 44.253 113.049 43.4076 112.525C42.8521 112.181 42.288 111.966 41.7155 111.879C41.143 111.791 40.5875 111.832 40.0492 112C39.5109 112.167 39.0183 112.464 38.5713 112.889L36.4337 111.565C37.063 110.819 37.8199 110.264 38.7045 109.901C39.5793 109.541 40.5258 109.409 41.544 109.504C42.5525 109.603 43.57 109.969 44.5966 110.605Z" fill="#FFEFDA"/>
<path d="M47.394 113.615L48.2999 113.192L48.2999 113.192L47.394 113.615ZM43.3638 124.941L43.9002 125.785L43.9021 125.783L43.3638 124.941ZM39.5959 126.129L39.5728 125.129L39.5712 125.129L39.5959 126.129ZM33.4185 122.83L34.2527 122.279L33.4185 122.83ZM32.4314 120.114L31.4364 120.214L31.4364 120.214L32.4314 120.114ZM32.9117 117.254L33.4381 116.403L32.4617 115.799L31.9972 116.849L32.9117 117.254ZM35.0493 118.577L36.0039 118.875L36.235 118.135L35.5758 117.727L35.0493 118.577ZM35.0931 120.935L36.0519 120.65L36.0485 120.639L35.0931 120.935ZM39.4753 123.774L39.4262 122.775L39.4242 122.775L39.4753 123.774ZM42.0609 122.856L42.6228 123.683L42.6258 123.681L42.0609 122.856ZM45.5078 117.309L46.4961 117.462L46.4971 117.455L45.5078 117.309ZM45.2083 114.555L46.1294 114.166L46.1276 114.161L45.2083 114.555ZM41.7155 111.879L41.565 112.867L41.565 112.867L41.7155 111.879ZM40.0492 112L39.7515 111.045L39.7515 111.045L40.0492 112ZM38.5713 112.889L38.0449 113.739L38.7011 114.145L39.2604 113.614L38.5713 112.889ZM36.4337 111.565L35.6691 110.921L34.9229 111.806L35.9073 112.416L36.4337 111.565ZM38.7045 109.901L39.084 110.827L39.0855 110.826L38.7045 109.901ZM41.544 109.504L41.6409 108.509L41.6378 108.509L41.544 109.504ZM44.0701 111.455C45.2361 112.177 46.0222 113.042 46.4881 114.039L48.2999 113.192C47.6445 111.79 46.5657 110.648 45.123 109.755L44.0701 111.455ZM46.4881 114.039C46.9653 115.06 47.1406 116.169 46.9986 117.391L48.9852 117.622C49.1673 116.054 48.9439 114.569 48.2999 113.192L46.4881 114.039ZM46.9986 117.391C46.856 118.618 46.4039 119.871 45.6087 121.156L47.3092 122.209C48.2339 120.715 48.8037 119.185 48.9852 117.622L46.9986 117.391ZM45.6087 121.156C44.7988 122.464 43.867 123.432 42.8254 124.098L43.9021 125.783C45.2377 124.93 46.3693 123.726 47.3092 122.209L45.6087 121.156ZM42.8274 124.097C41.7699 124.769 40.6896 125.103 39.5728 125.129L39.619 127.128C41.1293 127.093 42.561 126.636 43.9002 125.785L42.8274 124.097ZM39.5712 125.129C38.4642 125.156 37.3638 124.849 36.2532 124.161L35.2004 125.861C36.6018 126.729 38.0808 127.166 39.6205 127.128L39.5712 125.129ZM36.2532 124.161C35.3818 123.621 34.7237 122.991 34.2527 122.279L32.5842 123.381C33.2345 124.365 34.1153 125.19 35.2004 125.861L36.2532 124.161ZM34.2527 122.279C33.7766 121.558 33.5065 120.806 33.4263 120.013L31.4364 120.214C31.551 121.346 31.939 122.405 32.5842 123.381L34.2527 122.279ZM33.4263 120.013C33.3475 119.235 33.4739 118.455 33.8263 117.658L31.9972 116.849C31.5143 117.941 31.3204 119.068 31.4364 120.214L33.4263 120.013ZM32.3853 118.104L34.5229 119.427L35.5758 117.727L33.4381 116.403L32.3853 118.104ZM34.0948 118.279C33.7969 119.233 33.8277 120.228 34.1377 121.23L36.0485 120.639C35.841 119.968 35.8427 119.391 36.0039 118.875L34.0948 118.279ZM34.1344 121.219C34.4702 122.351 35.2598 123.242 36.3531 123.919L37.406 122.218C36.6153 121.729 36.2139 121.197 36.0518 120.65L34.1344 121.219ZM36.3531 123.919C37.3429 124.532 38.4075 124.829 39.5264 124.772L39.4242 122.775C38.7487 122.809 38.0828 122.637 37.406 122.218L36.3531 123.919ZM39.5244 124.772C40.6195 124.718 41.656 124.34 42.6228 123.683L41.4989 122.029C40.7932 122.508 40.1059 122.741 39.4262 122.775L39.5244 124.772ZM42.6258 123.681C43.5907 123.02 44.4195 122.1 45.1267 120.957L43.4263 119.905C42.8323 120.864 42.1841 121.56 41.4959 122.031L42.6258 123.681ZM45.1267 120.957C45.8463 119.795 46.316 118.629 46.4961 117.462L44.5195 117.157C44.3889 118.002 44.0377 118.917 43.4263 119.905L45.1267 120.957ZM46.4971 117.455C46.6694 116.29 46.5593 115.183 46.1294 114.166L44.2872 114.944C44.5553 115.579 44.6449 116.308 44.5186 117.163L46.4971 117.455ZM46.1276 114.161C45.6834 113.124 44.9356 112.295 43.934 111.675L42.8812 113.376C43.5704 113.802 44.023 114.327 44.2889 114.948L46.1276 114.161ZM43.934 111.675C43.2785 111.269 42.588 111 41.866 110.89L41.565 112.867C41.9881 112.932 42.4256 113.093 42.8812 113.376L43.934 111.675ZM41.866 110.89C41.1476 110.781 40.4387 110.831 39.7515 111.045L40.3469 112.954C40.7364 112.833 41.1383 112.802 41.565 112.867L41.866 110.89ZM39.7515 111.045C39.0535 111.263 38.4297 111.644 37.8822 112.164L39.2604 113.614C39.6068 113.284 39.9683 113.072 40.3469 112.954L39.7515 111.045ZM39.0978 112.039L36.9602 110.715L35.9073 112.416L38.0449 113.739L39.0978 112.039ZM37.1983 112.21C37.726 111.584 38.3517 111.127 39.084 110.827L38.325 108.976C37.2881 109.402 36.4 110.054 35.6691 110.921L37.1983 112.21ZM39.0855 110.826C39.7982 110.532 40.5803 110.418 41.4503 110.5L41.6378 108.509C40.4712 108.399 39.3603 108.55 38.3234 108.977L39.0855 110.826ZM41.4472 110.5C42.2767 110.58 43.1491 110.885 44.0701 111.455L45.123 109.755C43.991 109.054 42.8283 108.625 41.6409 108.509L41.4472 110.5Z" fill="#FFEFDA" mask="url(#path-3-outside-2_120_15)"/>
<mask id="path-5-outside-3_120_15" maskUnits="userSpaceOnUse" x="13.8196" y="93.7913" width="21.7913" height="20.2282" fill="black">
<rect fill="white" x="13.8196" y="93.7913" width="21.7913" height="20.2282"/>
<path d="M33.7925 101.821L20.7341 111.682L19.2703 109.744L21.2426 108.254L21.1399 108.118C20.314 108.368 19.4645 108.333 18.5913 108.014C17.7181 107.694 16.9861 107.143 16.3955 106.361C16.2842 106.214 16.1479 106.028 15.9867 105.802C15.8254 105.577 15.7076 105.403 15.6334 105.281L17.6738 103.741C17.7081 103.821 17.8003 103.997 17.9504 104.266C18.0904 104.534 18.2611 104.801 18.4622 105.067C18.9416 105.702 19.5028 106.168 20.1458 106.466C20.7789 106.762 21.437 106.879 22.12 106.818C22.7931 106.754 23.4244 106.5 24.0138 106.055L32.2774 99.8145L33.7925 101.821Z"/>
</mask>
<path d="M33.7925 101.821L20.7341 111.682L19.2703 109.744L21.2426 108.254L21.1399 108.118C20.314 108.368 19.4645 108.333 18.5913 108.014C17.7181 107.694 16.9861 107.143 16.3955 106.361C16.2842 106.214 16.1479 106.028 15.9867 105.802C15.8254 105.577 15.7076 105.403 15.6334 105.281L17.6738 103.741C17.7081 103.821 17.8003 103.997 17.9504 104.266C18.0904 104.534 18.2611 104.801 18.4622 105.067C18.9416 105.702 19.5028 106.168 20.1458 106.466C20.7789 106.762 21.437 106.879 22.12 106.818C22.7931 106.754 23.4244 106.5 24.0138 106.055L32.2774 99.8145L33.7925 101.821Z" fill="#FFEFDA"/>
<path d="M33.7925 101.821L34.3952 102.619L35.1932 102.016L34.5905 101.218L33.7925 101.821ZM20.7341 111.682L19.936 112.285L20.5387 113.083L21.3367 112.48L20.7341 111.682ZM19.2703 109.744L18.6676 108.946L17.8696 109.548L18.4723 110.346L19.2703 109.744ZM21.2426 108.254L21.8453 109.052L22.6433 108.45L22.0407 107.652L21.2426 108.254ZM21.1399 108.118L21.9379 107.516L21.5177 106.959L20.8503 107.161L21.1399 108.118ZM18.5913 108.014L18.2476 108.953L18.2476 108.953L18.5913 108.014ZM15.6334 105.281L15.0307 104.483L14.3086 105.029L14.7794 105.802L15.6334 105.281ZM17.6738 103.741L18.5941 103.349L18.0932 102.171L17.0711 102.943L17.6738 103.741ZM17.9504 104.266L18.8366 103.803L18.8304 103.791L18.824 103.779L17.9504 104.266ZM20.1458 106.466L20.5696 105.56L20.5658 105.559L20.1458 106.466ZM22.12 106.818L22.2103 107.813L22.2136 107.813L22.12 106.818ZM32.2774 99.8145L33.0754 99.2119L32.4728 98.4139L31.6747 99.0165L32.2774 99.8145ZM33.1899 101.023L20.1314 110.884L21.3367 112.48L34.3952 102.619L33.1899 101.023ZM21.5321 111.08L20.0683 109.141L18.4723 110.346L19.936 112.285L21.5321 111.08ZM19.8729 110.542L21.8453 109.052L20.64 107.456L18.6676 108.946L19.8729 110.542ZM22.0407 107.652L21.9379 107.516L20.3419 108.721L20.4446 108.857L22.0407 107.652ZM20.8503 107.161C20.2484 107.343 19.6214 107.326 18.9349 107.075L18.2476 108.953C19.3076 109.341 20.3797 109.393 21.4295 109.075L20.8503 107.161ZM18.9349 107.075C18.2524 106.825 17.6748 106.396 17.1935 105.759L15.5974 106.964C16.2975 107.891 17.1837 108.564 18.2476 108.953L18.9349 107.075ZM17.1935 105.759C17.0892 105.621 16.9583 105.442 16.7999 105.22L15.1735 106.384C15.3375 106.613 15.4792 106.807 15.5974 106.964L17.1935 105.759ZM16.7999 105.22C16.6423 105 16.5419 104.851 16.4874 104.761L14.7794 105.802C14.8734 105.956 15.0085 106.154 15.1735 106.384L16.7999 105.22ZM16.236 106.079L18.2764 104.539L17.0711 102.943L15.0307 104.483L16.236 106.079ZM16.7534 104.132C16.8128 104.271 16.934 104.496 17.0767 104.752L18.824 103.779C18.751 103.648 18.6946 103.545 18.6535 103.467C18.6085 103.381 18.5938 103.349 18.5941 103.349L16.7534 104.132ZM17.0641 104.729C17.2322 105.051 17.4332 105.364 17.6642 105.67L19.2603 104.465C19.0889 104.238 18.9487 104.017 18.8366 103.803L17.0641 104.729ZM17.6642 105.67C18.2303 106.42 18.9161 106.999 19.7258 107.374L20.5658 105.559C20.0895 105.338 19.6529 104.985 19.2603 104.465L17.6642 105.67ZM19.722 107.372C20.5123 107.742 21.3474 107.892 22.2103 107.813L22.0297 105.822C21.5265 105.867 21.0456 105.783 20.5696 105.56L19.722 107.372ZM22.2136 107.813C23.0884 107.731 23.8931 107.399 24.6165 106.853L23.4112 105.257C22.9556 105.601 22.4978 105.778 22.0264 105.822L22.2136 107.813ZM24.6165 106.853L32.88 100.613L31.6747 99.0165L23.4112 105.257L24.6165 106.853ZM31.4794 100.417L32.9945 102.424L34.5905 101.218L33.0754 99.2119L31.4794 100.417Z" fill="#FFEFDA" mask="url(#path-5-outside-3_120_15)"/>
<mask id="path-7-outside-4_120_15" maskUnits="userSpaceOnUse" x="4.146" y="74.3361" width="23.8888" height="21.8243" fill="black">
<rect fill="white" x="4.146" y="74.3361" width="23.8888" height="21.8243"/>
<path d="M24.1243 83.0057C24.5286 84.4265 24.5451 85.7694 24.174 87.0344C23.8009 88.2924 23.0919 89.395 22.047 90.3421C21.0002 91.2824 19.6638 91.9838 18.038 92.4464C16.3985 92.9129 14.8829 93.0229 13.491 92.7765C12.0972 92.5233 10.9105 91.9601 9.93105 91.0868C8.94961 90.2067 8.25676 89.0563 7.85248 87.6354C7.44821 86.2145 7.43261 84.875 7.80569 83.617C8.17682 82.352 8.88923 81.2485 9.94291 80.3063C10.9946 79.3572 12.3403 78.6495 13.9797 78.183C15.6055 77.7204 17.1119 77.6167 18.4989 77.8719C19.884 78.1202 21.0672 78.6844 22.0486 79.5645C23.0281 80.4377 23.72 81.5848 24.1243 83.0057ZM21.952 83.6237C21.6449 82.5444 21.1155 81.7351 20.364 81.1957C19.6124 80.6564 18.7381 80.3476 17.7412 80.2695C16.7442 80.1913 15.7198 80.3019 14.6678 80.6012C13.6158 80.9005 12.6831 81.3468 11.8698 81.94C11.0565 82.5333 10.4689 83.258 10.107 84.1141C9.7451 84.9703 9.7177 85.938 10.0248 87.0173C10.3319 88.0966 10.8646 88.905 11.623 89.4424C12.3814 89.9798 13.2625 90.2866 14.2663 90.3628C15.2701 90.4391 16.298 90.3275 17.35 90.0282C18.402 89.7289 19.3312 89.2836 20.1377 88.6923C20.9442 88.101 21.5249 87.3783 21.88 86.524C22.2351 85.6698 22.2591 84.7031 21.952 83.6237Z"/>
</mask>
<path d="M24.1243 83.0057C24.5286 84.4265 24.5451 85.7694 24.174 87.0344C23.8009 88.2924 23.0919 89.395 22.047 90.3421C21.0002 91.2824 19.6638 91.9838 18.038 92.4464C16.3985 92.9129 14.8829 93.0229 13.491 92.7765C12.0972 92.5233 10.9105 91.9601 9.93105 91.0868C8.94961 90.2067 8.25676 89.0563 7.85248 87.6354C7.44821 86.2145 7.43261 84.875 7.80569 83.617C8.17682 82.352 8.88923 81.2485 9.94291 80.3063C10.9946 79.3572 12.3403 78.6495 13.9797 78.183C15.6055 77.7204 17.1119 77.6167 18.4989 77.8719C19.884 78.1202 21.0672 78.6844 22.0486 79.5645C23.0281 80.4377 23.72 81.5848 24.1243 83.0057ZM21.952 83.6237C21.6449 82.5444 21.1155 81.7351 20.364 81.1957C19.6124 80.6564 18.7381 80.3476 17.7412 80.2695C16.7442 80.1913 15.7198 80.3019 14.6678 80.6012C13.6158 80.9005 12.6831 81.3468 11.8698 81.94C11.0565 82.5333 10.4689 83.258 10.107 84.1141C9.7451 84.9703 9.7177 85.938 10.0248 87.0173C10.3319 88.0966 10.8646 88.905 11.623 89.4424C12.3814 89.9798 13.2625 90.2866 14.2663 90.3628C15.2701 90.4391 16.298 90.3275 17.35 90.0282C18.402 89.7289 19.3312 89.2836 20.1377 88.6923C20.9442 88.101 21.5249 87.3783 21.88 86.524C22.2351 85.6698 22.2591 84.7031 21.952 83.6237Z" fill="#FFEFDA"/>
<path d="M24.174 87.0344L25.1327 87.3187L25.1335 87.3159L24.174 87.0344ZM22.047 90.3421L22.7152 91.0861L22.7186 91.0831L22.047 90.3421ZM13.491 92.7765L13.3122 93.7604L13.3167 93.7612L13.491 92.7765ZM9.93105 91.0868L9.26343 91.8313L9.26558 91.8333L9.93105 91.0868ZM7.80569 83.617L8.76443 83.9013L8.76524 83.8985L7.80569 83.617ZM9.94291 80.3063L10.6095 81.0517L10.6128 81.0487L9.94291 80.3063ZM18.4989 77.8719L18.318 78.8554L18.3224 78.8562L18.4989 77.8719ZM22.0486 79.5645L21.381 80.309L21.3832 80.3109L22.0486 79.5645ZM20.364 81.1957L19.7809 82.0082L19.7809 82.0082L20.364 81.1957ZM17.7412 80.2695L17.8194 79.2725L17.8194 79.2725L17.7412 80.2695ZM11.8698 81.94L11.2805 81.1321L11.2805 81.1321L11.8698 81.94ZM10.107 84.1141L9.18592 83.7248L9.18592 83.7248L10.107 84.1141ZM11.623 89.4424L11.0449 90.2583L11.0449 90.2583L11.623 89.4424ZM14.2663 90.3628L14.1906 91.36L14.1906 91.36L14.2663 90.3628ZM20.1377 88.6923L20.729 89.4988L20.729 89.4988L20.1377 88.6923ZM21.88 86.524L20.9566 86.1402L20.9566 86.1402L21.88 86.524ZM23.1625 83.2793C23.5215 84.5412 23.5262 85.6903 23.2144 86.7528L25.1335 87.3159C25.5641 85.8486 25.5356 84.3119 25.0861 82.732L23.1625 83.2793ZM23.2153 86.75C22.8982 87.8193 22.2951 88.7676 21.3754 89.6012L22.7186 91.0831C23.8887 90.0225 24.7037 88.7655 25.1327 87.3187L23.2153 86.75ZM21.3788 89.5982C20.4657 90.4183 19.2729 91.0554 17.7644 91.4846L18.3117 93.4082C20.0548 92.9123 21.5346 92.1465 22.7152 91.0861L21.3788 89.5982ZM17.7644 91.4846C16.241 91.918 14.8805 92.007 13.6653 91.7918L13.3167 93.7612C14.8853 94.0389 16.5561 93.9077 18.3117 93.4082L17.7644 91.4846ZM13.6698 91.7926C12.442 91.5696 11.4278 91.0815 10.5965 90.3404L9.26558 91.8333C10.3933 92.8386 11.7524 93.477 13.3122 93.7604L13.6698 91.7926ZM10.5987 90.3423C9.77428 89.6031 9.17334 88.6236 8.81431 87.3617L6.89066 87.9091C7.34018 89.4889 8.12495 90.8104 9.26343 91.8313L10.5987 90.3423ZM8.81431 87.3617C8.45524 86.0997 8.45188 84.9552 8.76442 83.9013L6.84696 83.3327C6.41334 84.7949 6.44118 86.3293 6.89066 87.9091L8.81431 87.3617ZM8.76524 83.8985C9.08006 82.8255 9.68434 81.879 10.6095 81.0517L9.27633 79.5608C8.09412 80.618 7.27359 81.8786 6.84614 83.3354L8.76524 83.8985ZM10.6128 81.0487C11.5302 80.2209 12.7315 79.5778 14.2534 79.1448L13.7061 77.2212C11.949 77.7211 10.4591 78.4936 9.27297 79.5638L10.6128 81.0487ZM14.2534 79.1448C15.7604 78.716 17.1093 78.633 18.318 78.8554L18.6799 76.8884C17.1146 76.6004 15.4507 76.7248 13.7061 77.2212L14.2534 79.1448ZM18.3224 78.8562C19.5375 79.074 20.5473 79.5613 21.381 80.309L22.7162 78.82C21.5871 77.8075 20.2304 77.1664 18.6754 76.8876L18.3224 78.8562ZM21.3832 80.3109C22.2037 81.0425 22.8034 82.0173 23.1625 83.2793L25.0861 82.732C24.6366 81.1522 23.8525 79.833 22.7141 78.8181L21.3832 80.3109ZM22.9138 83.3501C22.5585 82.1013 21.9187 81.0806 20.947 80.3833L19.7809 82.0082C20.3124 82.3896 20.7313 82.9875 20.9901 83.8974L22.9138 83.3501ZM20.947 80.3833C20.0352 79.7289 18.983 79.3638 17.8194 79.2725L17.663 81.2664C18.4933 81.3315 19.1896 81.5839 19.7809 82.0082L20.947 80.3833ZM17.8194 79.2725C16.6934 79.1843 15.5497 79.3106 14.3941 79.6394L14.9414 81.563C15.8899 81.2932 16.7951 81.1984 17.663 81.2664L17.8194 79.2725ZM14.3941 79.6394C13.2385 79.9682 12.1971 80.4636 11.2805 81.1321L12.4591 82.7479C13.1692 82.23 13.9931 81.8329 14.9414 81.563L14.3941 79.6394ZM11.2805 81.1321C10.3333 81.823 9.62425 82.6878 9.18592 83.7248L11.0281 84.5035C11.3136 83.8281 11.7797 83.2435 12.4591 82.7479L11.2805 81.1321ZM9.18592 83.7248C8.71795 84.8318 8.70689 86.0395 9.06296 87.291L10.9866 86.7437C10.7285 85.8365 10.7723 85.1087 11.0281 84.5035L9.18592 83.7248ZM9.06296 87.291C9.41904 88.5425 10.0642 89.5634 11.0449 90.2583L12.2012 88.6265C11.6651 88.2466 11.2447 87.6508 10.9866 86.7437L9.06296 87.291ZM11.0449 90.2583C11.9635 90.9092 13.0215 91.2712 14.1906 91.36L14.342 89.3657C13.5035 89.302 12.7994 89.0504 12.2012 88.6265L11.0449 90.2583ZM14.1906 91.36C15.3218 91.4459 16.468 91.3188 17.6236 90.99L17.0763 89.0664C16.128 89.3362 15.2184 89.4323 14.342 89.3657L14.1906 91.36ZM17.6236 90.99C18.7792 90.6612 19.8181 90.1666 20.729 89.4988L19.5464 87.8858C18.8443 88.4006 18.0248 88.7965 17.0763 89.0664L17.6236 90.99ZM20.729 89.4988C21.6703 88.8086 22.3726 87.9442 22.8034 86.9079L20.9566 86.1402C20.6773 86.8123 20.218 87.3934 19.5464 87.8858L20.729 89.4988ZM22.8034 86.9079C23.2625 85.8035 23.2691 84.5988 22.9138 83.3501L20.9901 83.8974C21.249 84.8073 21.2077 85.5362 20.9566 86.1402L22.8034 86.9079Z" fill="#FFEFDA" mask="url(#path-7-outside-4_120_15)"/>
<mask id="path-9-outside-5_120_15" maskUnits="userSpaceOnUse" x="-1.04108" y="60.0557" width="24.4512" height="8.18885" fill="black">
<rect fill="white" x="-1.04108" y="60.0557" width="24.4512" height="8.18885"/>
<path d="M0.526719 61.9194L22.2518 63.9325L22.0198 66.436L0.294737 64.4228L0.526719 61.9194Z"/>
</mask>
<path d="M0.526719 61.9194L22.2518 63.9325L22.0198 66.436L0.294737 64.4228L0.526719 61.9194Z" fill="#FFEFDA"/>
<path d="M0.526719 61.9194L0.618987 60.9236L-0.376747 60.8314L-0.469015 61.8271L0.526719 61.9194ZM22.2518 63.9325L23.2476 64.0248L23.3398 63.029L22.3441 62.9368L22.2518 63.9325ZM22.0198 66.436L21.9276 67.4317L22.9233 67.524L23.0156 66.5282L22.0198 66.436ZM0.294737 64.4228L-0.700997 64.3306L-0.793265 65.3263L0.202469 65.4186L0.294737 64.4228ZM0.434451 62.9151L22.1596 64.9282L22.3441 62.9368L0.618987 60.9236L0.434451 62.9151ZM21.2561 63.8402L21.0241 66.3437L23.0156 66.5282L23.2476 64.0248L21.2561 63.8402ZM22.1121 65.4402L0.387006 63.4271L0.202469 65.4186L21.9276 67.4317L22.1121 65.4402ZM1.29047 64.5151L1.52245 62.0116L-0.469015 61.8271L-0.700997 64.3306L1.29047 64.5151Z" fill="#FFEFDA" mask="url(#path-9-outside-5_120_15)"/>
<mask id="path-11-outside-6_120_15" maskUnits="userSpaceOnUse" x="5.14177" y="34.9234" width="24.1583" height="16.0687" fill="black">
<rect fill="white" x="5.14177" y="34.9234" width="24.1583" height="16.0687"/>
<path d="M8.08867 37.0275L27.6195 46.7527L26.4988 49.0034L6.96799 39.2782L8.08867 37.0275Z"/>
</mask>
<path d="M8.08867 37.0275L27.6195 46.7527L26.4988 49.0034L6.96799 39.2782L8.08867 37.0275Z" fill="#FFEFDA"/>
<path d="M8.08867 37.0275L8.53441 36.1324L7.63925 35.6866L7.19351 36.5818L8.08867 37.0275ZM27.6195 46.7527L28.5147 47.1985L28.9604 46.3033L28.0652 45.8576L27.6195 46.7527ZM26.4988 49.0034L26.0531 49.8985L26.9483 50.3443L27.394 49.4491L26.4988 49.0034ZM6.96799 39.2782L6.07283 38.8324L5.62709 39.7276L6.52226 40.1733L6.96799 39.2782ZM7.64293 37.9227L27.1738 47.6479L28.0652 45.8576L8.53441 36.1324L7.64293 37.9227ZM26.7243 46.307L25.6037 48.5576L27.394 49.4491L28.5147 47.1985L26.7243 46.307ZM26.9446 48.1082L7.41373 38.383L6.52226 40.1733L26.0531 49.8985L26.9446 48.1082ZM7.86316 39.7239L8.98384 37.4733L7.19351 36.5818L6.07283 38.8324L7.86316 39.7239Z" fill="#FFEFDA" mask="url(#path-11-outside-6_120_15)"/>
<mask id="path-13-outside-7_120_15" maskUnits="userSpaceOnUse" x="42.8331" y="10.4981" width="13.9283" height="9.3585" fill="black">
<rect fill="white" x="42.8331" y="10.4981" width="13.9283" height="9.3585"/>
<path d="M53.8518 12.5068L54.6984 14.6923L45.7975 18.1405L44.9509 15.955L53.8518 12.5068Z"/>
</mask>
<path d="M53.8518 12.5068L54.6984 14.6923L45.7975 18.1405L44.9509 15.955L53.8518 12.5068Z" fill="#FFEFDA"/>
<path d="M53.8518 12.5068L54.7842 12.1455L54.423 11.2131L53.4905 11.5743L53.8518 12.5068ZM54.6984 14.6923L55.0597 15.6247L55.9921 15.2635L55.6309 14.331L54.6984 14.6923ZM45.7975 18.1405L44.8651 18.5017L45.2263 19.4342L46.1588 19.073L45.7975 18.1405ZM44.9509 15.955L44.5896 15.0225L43.6572 15.3838L44.0184 16.3162L44.9509 15.955ZM52.9193 12.868L53.7659 15.0535L55.6309 14.331L54.7842 12.1455L52.9193 12.868ZM54.3372 13.7598L45.4363 17.208L46.1588 19.073L55.0597 15.6247L54.3372 13.7598ZM46.73 17.7792L45.8834 15.5938L44.0184 16.3162L44.8651 18.5017L46.73 17.7792ZM45.3121 16.8875L54.213 13.4393L53.4905 11.5743L44.5896 15.0225L45.3121 16.8875Z" fill="#FFEFDA" mask="url(#path-13-outside-7_120_15)"/>
<mask id="path-15-outside-8_120_15" maskUnits="userSpaceOnUse" x="79.4986" y="-1.56711" width="26.1768" height="30.7466" fill="black">
<rect fill="white" x="79.4986" y="-1.56711" width="26.1768" height="30.7466"/>
<path d="M99.1531 10.5979C99.4238 9.54503 99.2431 8.57626 98.6109 7.69156C97.9787 6.80685 97.0467 6.12589 95.8149 5.64869C94.9142 5.29976 94.0697 5.14015 93.2813 5.16985C92.4995 5.20212 91.8211 5.4001 91.2461 5.76381C90.6776 6.13008 90.2677 6.63772 90.0163 7.28675C89.8059 7.82981 89.7542 8.34673 89.8611 8.83753C89.9772 9.32427 90.1905 9.77632 90.501 10.1937C90.8141 10.6044 91.1638 10.9798 91.55 11.3198C91.9388 11.6532 92.3027 11.9427 92.6417 12.1883L94.4924 13.5451C94.9684 13.8894 95.4834 14.3098 96.0375 14.8063C96.5982 15.3053 97.0945 15.8822 97.5263 16.537C97.9673 17.1877 98.2562 17.9165 98.393 18.7235C98.5297 19.5306 98.4133 20.4109 98.0439 21.3646C97.618 22.4639 96.9451 23.3457 96.0251 24.01C95.1117 24.6768 94.004 25.0588 92.702 25.1561C91.4066 25.256 89.9774 25.0031 88.4144 24.3976C86.9574 23.8332 85.7869 23.1093 84.9028 22.2261C84.0253 21.3454 83.4449 20.3664 83.1614 19.2893C82.8846 18.2148 82.922 17.1058 83.2735 15.9624L85.8166 16.9476C85.5852 17.7415 85.5972 18.4773 85.8526 19.1551C86.1171 19.8288 86.5496 20.4229 87.1501 20.9374C87.7597 21.4477 88.4685 21.8594 89.2765 22.1724C90.2169 22.5368 91.1203 22.7115 91.9867 22.6968C92.8556 22.6755 93.6151 22.4746 94.2652 22.0943C94.9178 21.7073 95.3878 21.1429 95.6751 20.4012C95.9368 19.7257 95.961 19.1029 95.7477 18.5328C95.5344 17.9627 95.1711 17.4259 94.6579 16.9224C94.1446 16.4189 93.5688 15.9292 92.9305 15.4535L90.7042 13.7684C89.2918 12.6957 88.2862 11.5559 87.6875 10.349C87.0887 9.14211 87.0548 7.85322 87.5859 6.48233C88.0272 5.34323 88.72 4.46913 89.6643 3.86003C90.6178 3.24687 91.7088 2.90788 92.9374 2.84304C94.1751 2.77414 95.443 2.99113 96.7411 3.49399C98.0523 4.00199 99.1268 4.68864 99.9646 5.55396C100.805 6.41266 101.367 7.36144 101.65 8.40031C101.939 9.44175 101.902 10.4821 101.537 11.5215L99.1531 10.5979Z"/>
</mask>
<path d="M99.1531 10.5979C99.4238 9.54503 99.2431 8.57626 98.6109 7.69156C97.9787 6.80685 97.0467 6.12589 95.8149 5.64869C94.9142 5.29976 94.0697 5.14015 93.2813 5.16985C92.4995 5.20212 91.8211 5.4001 91.2461 5.76381C90.6776 6.13008 90.2677 6.63772 90.0163 7.28675C89.8059 7.82981 89.7542 8.34673 89.8611 8.83753C89.9772 9.32427 90.1905 9.77632 90.501 10.1937C90.8141 10.6044 91.1638 10.9798 91.55 11.3198C91.9388 11.6532 92.3027 11.9427 92.6417 12.1883L94.4924 13.5451C94.9684 13.8894 95.4834 14.3098 96.0375 14.8063C96.5982 15.3053 97.0945 15.8822 97.5263 16.537C97.9673 17.1877 98.2562 17.9165 98.393 18.7235C98.5297 19.5306 98.4133 20.4109 98.0439 21.3646C97.618 22.4639 96.9451 23.3457 96.0251 24.01C95.1117 24.6768 94.004 25.0588 92.702 25.1561C91.4066 25.256 89.9774 25.0031 88.4144 24.3976C86.9574 23.8332 85.7869 23.1093 84.9028 22.2261C84.0253 21.3454 83.4449 20.3664 83.1614 19.2893C82.8846 18.2148 82.922 17.1058 83.2735 15.9624L85.8166 16.9476C85.5852 17.7415 85.5972 18.4773 85.8526 19.1551C86.1171 19.8288 86.5496 20.4229 87.1501 20.9374C87.7597 21.4477 88.4685 21.8594 89.2765 22.1724C90.2169 22.5368 91.1203 22.7115 91.9867 22.6968C92.8556 22.6755 93.6151 22.4746 94.2652 22.0943C94.9178 21.7073 95.3878 21.1429 95.6751 20.4012C95.9368 19.7257 95.961 19.1029 95.7477 18.5328C95.5344 17.9627 95.1711 17.4259 94.6579 16.9224C94.1446 16.4189 93.5688 15.9292 92.9305 15.4535L90.7042 13.7684C89.2918 12.6957 88.2862 11.5559 87.6875 10.349C87.0887 9.14211 87.0548 7.85322 87.5859 6.48233C88.0272 5.34323 88.72 4.46913 89.6643 3.86003C90.6178 3.24687 91.7088 2.90788 92.9374 2.84304C94.1751 2.77414 95.443 2.99113 96.7411 3.49399C98.0523 4.00199 99.1268 4.68864 99.9646 5.55396C100.805 6.41266 101.367 7.36144 101.65 8.40031C101.939 9.44175 101.902 10.4821 101.537 11.5215L99.1531 10.5979Z" fill="#FFEFDA"/>
<path d="M99.1531 10.5979L98.1846 10.3488L97.9633 11.2093L98.7918 11.5303L99.1531 10.5979ZM98.6109 7.69156L97.7973 8.27295L97.7973 8.27295L98.6109 7.69156ZM93.2813 5.16985L93.2436 4.17055L93.2401 4.1707L93.2813 5.16985ZM91.2461 5.76381L90.7115 4.91863L90.7044 4.92321L91.2461 5.76381ZM89.8611 8.83753L88.884 9.05037L88.8861 9.05998L88.8884 9.06955L89.8611 8.83753ZM90.501 10.1937L89.6987 10.7907L89.7058 10.7999L90.501 10.1937ZM91.55 11.3198L90.8891 12.0704L90.899 12.0789L91.55 11.3198ZM92.6417 12.1883L93.2329 11.3818L93.2283 11.3785L92.6417 12.1883ZM94.4924 13.5451L93.9012 14.3516L93.9063 14.3553L94.4924 13.5451ZM96.0375 14.8063L95.3701 15.5511L95.3726 15.5533L96.0375 14.8063ZM97.5263 16.537L96.6914 17.0876L96.6985 17.098L97.5263 16.537ZM98.393 18.7235L99.3789 18.5565L99.3789 18.5565L98.393 18.7235ZM96.0251 24.01L95.4397 23.1992L95.4354 23.2023L96.0251 24.01ZM92.702 25.1561L92.6275 24.1589L92.6251 24.1591L92.702 25.1561ZM84.9028 22.2261L84.1944 22.9319L84.196 22.9335L84.9028 22.2261ZM83.1614 19.2893L82.193 19.5388L82.1944 19.5438L83.1614 19.2893ZM83.2735 15.9624L83.6348 15.0299L82.6333 14.642L82.3177 15.6685L83.2735 15.9624ZM85.8166 16.9476L86.7767 17.2274L87.0334 16.3466L86.1779 16.0151L85.8166 16.9476ZM85.8526 19.1551L84.9167 19.5077L84.9218 19.5206L85.8526 19.1551ZM87.1501 20.9374L86.4994 21.6968L86.5082 21.7041L87.1501 20.9374ZM91.9867 22.6968L92.0037 23.6967L92.0112 23.6965L91.9867 22.6968ZM94.2652 22.0943L94.7702 22.9574L94.7752 22.9544L94.2652 22.0943ZM95.7477 18.5328L96.6843 18.1824L96.6843 18.1824L95.7477 18.5328ZM94.6579 16.9224L93.9576 17.6363L93.9576 17.6363L94.6579 16.9224ZM92.9305 15.4535L92.327 16.2508L92.3329 16.2552L92.9305 15.4535ZM90.7042 13.7684L90.0994 14.5648L90.1007 14.5658L90.7042 13.7684ZM87.6875 10.349L86.7916 10.7934L86.7916 10.7934L87.6875 10.349ZM89.6643 3.86003L89.1234 3.01893L89.1223 3.01968L89.6643 3.86003ZM92.9374 2.84304L92.9901 3.84165L92.993 3.84149L92.9374 2.84304ZM99.9646 5.55396L99.2461 6.24953L99.2499 6.25337L99.9646 5.55396ZM101.65 8.40031L100.685 8.66318L100.686 8.66827L101.65 8.40031ZM101.537 11.5215L101.176 12.454L102.139 12.827L102.481 11.8525L101.537 11.5215ZM100.122 10.8469C100.466 9.50791 100.228 8.23516 99.4245 7.11016L97.7973 8.27295C98.2578 8.91737 98.3817 9.58215 98.1846 10.3488L100.122 10.8469ZM99.4245 7.11016C98.6567 6.03562 97.5503 5.24857 96.1762 4.71621L95.4537 6.58116C96.5431 7.00321 97.3008 7.57809 97.7973 8.27295L99.4245 7.11016ZM96.1762 4.71621C95.1762 4.32883 94.1951 4.13471 93.2436 4.17056L93.3189 6.16914C93.9443 6.14558 94.6523 6.27069 95.4537 6.58116L96.1762 4.71621ZM93.2401 4.1707C92.3098 4.2091 91.4557 4.44801 90.7115 4.91866L91.7806 6.60895C92.1865 6.3522 92.6892 6.19514 93.3225 6.169L93.2401 4.1707ZM90.7044 4.92321C89.9528 5.40749 89.4092 6.08559 89.0838 6.9255L90.9487 7.64799C91.1262 7.18985 91.4024 6.85267 91.7877 6.60441L90.7044 4.92321ZM89.0838 6.9255C88.8142 7.62154 88.729 8.33891 88.884 9.05037L90.8382 8.62469C90.7793 8.35456 90.7976 8.03807 90.9487 7.64799L89.0838 6.9255ZM88.8884 9.06955C89.0372 9.69347 89.3105 10.2689 89.6988 10.7906L91.3033 9.59672C91.0705 9.28379 90.9172 8.95507 90.8338 8.60552L88.8884 9.06955ZM89.7058 10.7999C90.0587 11.2629 90.4533 11.6866 90.8892 12.0704L92.2108 10.5693C91.8743 10.2729 91.5696 9.94593 91.2963 9.58742L89.7058 10.7999ZM90.899 12.0789C91.3041 12.4263 91.6896 12.7335 92.055 12.9981L93.2283 11.3785C92.9157 11.152 92.5734 10.8801 92.201 10.5607L90.899 12.0789ZM92.0504 12.9948L93.9012 14.3516L95.0837 12.7386L93.2329 11.3818L92.0504 12.9948ZM93.9063 14.3553C94.3478 14.6747 94.8355 15.072 95.3701 15.551L96.7048 14.0615C96.1313 13.5476 95.5889 13.1041 95.0786 12.7349L93.9063 14.3553ZM95.3726 15.5533C95.8655 15.992 96.3054 16.5021 96.6915 17.0875L98.3611 15.9864C97.8835 15.2623 97.3308 14.6187 96.7023 14.0593L95.3726 15.5533ZM96.6985 17.098C97.0559 17.6253 97.2932 18.2188 97.407 18.8906L99.3789 18.5565C99.2193 17.6143 98.8788 16.75 98.3541 15.9759L96.6985 17.098ZM97.407 18.8906C97.507 19.4806 97.4319 20.1762 97.1114 21.0033L98.9764 21.7258C99.3948 20.6456 99.5524 19.5805 99.3789 18.5565L97.407 18.8906ZM97.1114 21.0033C96.7525 21.9299 96.1966 22.6527 95.4397 23.1992L96.6105 24.8207C97.6935 24.0388 98.4835 22.998 98.9764 21.7258L97.1114 21.0033ZM95.4354 23.2023C94.6949 23.743 93.7728 24.0733 92.6275 24.1589L92.7765 26.1533C94.2353 26.0443 95.5286 25.6106 96.6147 24.8176L95.4354 23.2023ZM92.6251 24.1591C91.5154 24.2446 90.2382 24.0318 88.7757 23.4652L88.0532 25.3301C89.7165 25.9745 91.2977 26.2673 92.7789 26.1531L92.6251 24.1591ZM88.7757 23.4652C87.4168 22.9388 86.3741 22.2824 85.6096 21.5186L84.196 22.9335C85.1997 23.9363 86.4981 24.7277 88.0532 25.3301L88.7757 23.4652ZM85.6112 21.5203C84.8435 20.7497 84.362 19.9221 84.1285 19.0348L82.1944 19.5438C82.5278 20.8108 83.2072 21.941 84.1944 22.9319L85.6112 21.5203ZM84.1298 19.0399C83.9027 18.1581 83.9277 17.2375 84.2294 16.2563L82.3177 15.6685C81.9163 16.9741 81.8666 18.2715 82.1931 19.5388L84.1298 19.0399ZM82.9123 16.8949L85.4554 17.8801L86.1779 16.0151L83.6348 15.0299L82.9123 16.8949ZM84.8566 16.6678C84.5736 17.6388 84.5745 18.5992 84.9168 19.5077L86.7884 18.8026C86.6199 18.3554 86.5969 17.8442 86.7767 17.2274L84.8566 16.6678ZM84.9218 19.5206C85.2515 20.3603 85.7865 21.086 86.4995 21.6968L87.8007 20.178C87.3127 19.7599 86.9828 19.2974 86.7834 18.7896L84.9218 19.5206ZM86.5082 21.7041C87.2089 22.2907 88.0144 22.7559 88.9152 23.1049L89.6377 21.24C88.9226 20.9629 88.3106 20.6047 87.792 20.1706L86.5082 21.7041ZM88.9152 23.1049C89.9567 23.5084 90.9887 23.7139 92.0037 23.6967L91.9697 21.697C91.2519 21.7092 90.4771 21.5651 89.6377 21.24L88.9152 23.1049ZM92.0112 23.6965C93.023 23.6717 93.953 23.4355 94.7702 22.9574L93.7602 21.2312C93.2773 21.5137 92.6883 21.6793 91.9621 21.6971L92.0112 23.6965ZM94.7752 22.9544C95.6304 22.4474 96.2435 21.7022 96.6076 20.7624L94.7426 20.04C94.532 20.5837 94.2052 20.9672 93.7551 21.2341L94.7752 22.9544ZM96.6076 20.7624C96.9401 19.9041 96.9993 19.0244 96.6843 18.1824L94.8111 18.8832C94.9227 19.1814 94.9335 19.5473 94.7426 20.04L96.6076 20.7624ZM96.6843 18.1824C96.4113 17.4527 95.9571 16.7961 95.3581 16.2085L93.9576 17.6363C94.3852 18.0557 94.6575 18.4727 94.8111 18.8832L96.6843 18.1824ZM95.3581 16.2085C94.8095 15.6703 94.1988 15.1516 93.5281 14.6517L92.3329 16.2552C92.9388 16.7069 93.4797 17.1675 93.9576 17.6363L95.3581 16.2085ZM93.534 14.6561L91.3077 12.9711L90.1007 14.5658L92.327 16.2508L93.534 14.6561ZM91.3091 12.9721C89.9822 11.9643 89.0953 10.9367 88.5833 9.90457L86.7916 10.7934C87.4771 12.1751 88.6015 13.4271 90.0994 14.5648L91.3091 12.9721ZM88.5833 9.90457C88.1214 8.97372 88.0784 7.97935 88.5184 6.84357L86.6535 6.12108C86.0313 7.72709 86.0559 9.3105 86.7916 10.7934L88.5833 9.90457ZM88.5184 6.84357C88.8904 5.88329 89.4552 5.18492 90.2064 4.70038L89.1223 3.01968C87.9849 3.75334 87.164 4.80316 86.6535 6.12108L88.5184 6.84357ZM90.2052 4.70113C91.0001 4.18996 91.92 3.89813 92.9901 3.84165L92.8847 1.84443C91.4977 1.91763 90.2355 2.30379 89.1234 3.01893L90.2052 4.70113ZM92.993 3.84149C94.0721 3.78142 95.1981 3.96866 96.3798 4.42646L97.1023 2.56152C95.6879 2.0136 94.2781 1.76686 92.8818 1.84458L92.993 3.84149ZM96.3798 4.42646C97.5787 4.89093 98.5244 5.50406 99.2461 6.24952L100.683 4.8584C99.7293 3.87323 98.526 3.11305 97.1023 2.56152L96.3798 4.42646ZM99.2499 6.25337C99.985 7.00463 100.452 7.80715 100.685 8.66318L102.614 8.13745C102.282 6.91574 101.625 5.82068 100.679 4.85455L99.2499 6.25337ZM100.686 8.66827C100.92 9.50879 100.892 10.3402 100.594 11.1905L102.481 11.8525C102.912 10.6241 102.959 9.37472 102.613 8.13236L100.686 8.66827ZM101.898 10.589L99.5143 9.66539L98.7918 11.5303L101.176 12.454L101.898 10.589Z" fill="#FFEFDA" mask="url(#path-15-outside-8_120_15)"/>
<mask id="path-17-outside-9_120_15" maskUnits="userSpaceOnUse" x="96.6359" y="14.8519" width="26.0371" height="26.233" fill="black">
<rect fill="white" x="96.6359" y="14.8519" width="26.0371" height="26.233"/>
<path d="M104.244 34.3223C103.11 33.2888 102.378 32.1312 102.047 30.8494C101.716 29.5676 101.759 28.256 102.174 26.9146C102.59 25.5731 103.348 24.2988 104.448 23.0916C105.568 21.8635 106.782 20.9854 108.09 20.4573C109.407 19.9289 110.715 19.7704 112.012 19.9819C113.318 20.193 114.518 20.7961 115.609 21.7913C116.46 22.5665 117.082 23.4225 117.478 24.3595C117.873 25.2964 118.03 26.2469 117.949 27.2108C117.868 28.1748 117.535 29.0826 116.951 29.9341L115.093 28.2403C115.454 27.56 115.584 26.7848 115.483 25.9146C115.393 25.0441 114.938 24.2355 114.119 23.4891C113.395 22.8288 112.588 22.4388 111.697 22.3191C110.817 22.1989 109.914 22.3412 108.987 22.746C108.071 23.1504 107.196 23.8092 106.364 24.7225C105.512 25.6567 104.917 26.6042 104.58 27.565C104.247 28.5306 104.177 29.4513 104.368 30.3273C104.565 31.2081 105.03 31.9834 105.765 32.6533C106.248 33.0935 106.763 33.409 107.31 33.5999C107.856 33.7908 108.41 33.8532 108.97 33.7871C109.53 33.721 110.068 33.5201 110.586 33.1845L112.444 34.8783C111.688 35.4964 110.842 35.9025 109.906 36.0966C108.98 36.2903 108.025 36.2464 107.042 35.9651C106.069 35.6833 105.136 35.1357 104.244 34.3223Z"/>
</mask>
<path d="M104.244 34.3223C103.11 33.2888 102.378 32.1312 102.047 30.8494C101.716 29.5676 101.759 28.256 102.174 26.9146C102.59 25.5731 103.348 24.2988 104.448 23.0916C105.568 21.8635 106.782 20.9854 108.09 20.4573C109.407 19.9289 110.715 19.7704 112.012 19.9819C113.318 20.193 114.518 20.7961 115.609 21.7913C116.46 22.5665 117.082 23.4225 117.478 24.3595C117.873 25.2964 118.03 26.2469 117.949 27.2108C117.868 28.1748 117.535 29.0826 116.951 29.9341L115.093 28.2403C115.454 27.56 115.584 26.7848 115.483 25.9146C115.393 25.0441 114.938 24.2355 114.119 23.4891C113.395 22.8288 112.588 22.4388 111.697 22.3191C110.817 22.1989 109.914 22.3412 108.987 22.746C108.071 23.1504 107.196 23.8092 106.364 24.7225C105.512 25.6567 104.917 26.6042 104.58 27.565C104.247 28.5306 104.177 29.4513 104.368 30.3273C104.565 31.2081 105.03 31.9834 105.765 32.6533C106.248 33.0935 106.763 33.409 107.31 33.5999C107.856 33.7908 108.41 33.8532 108.97 33.7871C109.53 33.721 110.068 33.5201 110.586 33.1845L112.444 34.8783C111.688 35.4964 110.842 35.9025 109.906 36.0966C108.98 36.2903 108.025 36.2464 107.042 35.9651C106.069 35.6833 105.136 35.1357 104.244 34.3223Z" fill="#FFEFDA"/>
<path d="M102.047 30.8494L101.079 31.0992L101.079 31.0992L102.047 30.8494ZM108.09 20.4573L107.717 19.5292L107.715 19.5301L108.09 20.4573ZM112.012 19.9819L111.851 20.9689L111.852 20.9691L112.012 19.9819ZM117.478 24.3595L116.556 24.7481L117.478 24.3595ZM117.949 27.2108L118.945 27.2947L118.945 27.2947L117.949 27.2108ZM116.951 29.9341L116.277 30.6731L117.126 31.4468L117.776 30.4997L116.951 29.9341ZM115.093 28.2403L114.21 27.7718L113.846 28.4569L114.419 28.9793L115.093 28.2403ZM115.483 25.9146L114.489 26.0181L114.49 26.0294L115.483 25.9146ZM111.697 22.3191L111.562 23.3099L111.564 23.3102L111.697 22.3191ZM108.987 22.746L108.587 21.8297L108.583 21.8311L108.987 22.746ZM104.58 27.565L103.636 27.2334L103.634 27.2395L104.58 27.565ZM104.368 30.3273L103.391 30.5407L103.392 30.5451L104.368 30.3273ZM107.31 33.5999L107.639 32.6558L107.639 32.6558L107.31 33.5999ZM108.97 33.7871L109.087 34.7802L109.087 34.7802L108.97 33.7871ZM110.586 33.1845L111.26 32.4455L110.689 31.9255L110.042 32.3455L110.586 33.1845ZM112.444 34.8783L113.077 35.6524L113.973 34.9193L113.118 34.1393L112.444 34.8783ZM109.906 36.0966L109.703 35.1175L109.701 35.1178L109.906 36.0966ZM107.042 35.9651L106.764 36.9257L106.767 36.9265L107.042 35.9651ZM104.917 33.5833C103.904 32.6595 103.29 31.6647 103.015 30.5995L101.079 31.0992C101.465 32.5977 102.316 33.9182 103.57 35.0613L104.917 33.5833ZM103.015 30.5995C102.734 29.5084 102.765 28.386 103.129 27.2105L101.219 26.6186C100.752 28.126 100.699 29.6267 101.079 31.0992L103.015 30.5995ZM103.129 27.2105C103.495 26.0305 104.17 24.8816 105.187 23.7653L103.709 22.4179C102.526 23.716 101.685 25.1158 101.219 26.6186L103.129 27.2105ZM105.187 23.7653C106.224 22.6283 107.318 21.8474 108.464 21.3846L107.715 19.5301C106.246 20.1234 104.912 21.0986 103.709 22.4179L105.187 23.7653ZM108.462 21.3855C109.625 20.9191 110.748 20.789 111.851 20.9689L112.173 18.9949C110.682 18.7517 109.19 18.9386 107.717 19.5292L108.462 21.3855ZM111.852 20.9691C112.945 21.1457 113.97 21.6504 114.936 22.5304L116.283 21.0523C115.065 19.9419 113.692 19.2403 112.171 18.9947L111.852 20.9691ZM114.936 22.5304C115.693 23.2208 116.224 23.961 116.556 24.7481L118.399 23.9708C117.941 22.884 117.226 21.9121 116.283 21.0523L114.936 22.5304ZM116.556 24.7481C116.892 25.5438 117.019 26.3326 116.952 27.127L118.945 27.2947C119.041 26.1611 118.854 25.049 118.399 23.9708L116.556 24.7481ZM116.952 27.127C116.887 27.9066 116.619 28.65 116.126 29.3685L117.776 30.4997C118.451 29.5152 118.849 28.4431 118.945 27.2947L116.952 27.127ZM117.625 29.1951L115.767 27.5013L114.419 28.9793L116.277 30.6731L117.625 29.1951ZM115.977 28.7087C116.445 27.8257 116.597 26.8424 116.477 25.7998L114.49 26.0294C114.571 26.7271 114.463 27.2942 114.21 27.7718L115.977 28.7087ZM116.478 25.8112C116.356 24.6369 115.743 23.6164 114.793 22.7501L113.446 24.2281C114.133 24.8547 114.43 25.4512 114.489 26.0181L116.478 25.8112ZM114.793 22.7501C113.933 21.9659 112.941 21.4773 111.831 21.328L111.564 23.3102C112.234 23.4003 112.857 23.6918 113.446 24.2281L114.793 22.7501ZM111.833 21.3283C110.746 21.18 109.658 21.3617 108.587 21.8297L109.388 23.6624C110.169 23.3208 110.888 23.2179 111.562 23.3099L111.833 21.3283ZM108.583 21.8311C107.514 22.3032 106.53 23.056 105.625 24.0488L107.103 25.3962C107.863 24.5623 108.628 23.9976 109.391 23.6609L108.583 21.8311ZM105.625 24.0488C104.704 25.059 104.028 26.1195 103.636 27.2334L105.523 27.8966C105.807 27.089 106.32 26.2544 107.103 25.3962L105.625 24.0488ZM103.634 27.2395C103.251 28.3538 103.155 29.4618 103.391 30.5407L105.345 30.1139C105.198 29.4409 105.244 28.7073 105.525 27.8905L103.634 27.2395ZM103.392 30.5451C103.638 31.6469 104.221 32.5986 105.091 33.3923L106.439 31.9142C105.84 31.3681 105.491 30.7692 105.344 30.1095L103.392 30.5451ZM105.091 33.3923C105.661 33.9117 106.29 34.3033 106.98 34.544L107.639 32.6558C107.235 32.5147 106.835 32.2752 106.439 31.9142L105.091 33.3923ZM106.98 34.544C107.666 34.7836 108.372 34.8646 109.087 34.7802L108.852 32.794C108.447 32.8418 108.047 32.7981 107.639 32.6558L106.98 34.544ZM109.087 34.7802C109.813 34.6945 110.496 34.4346 111.13 34.0234L110.042 32.3455C109.641 32.6057 109.246 32.7475 108.852 32.794L109.087 34.7802ZM109.912 33.9235L111.77 35.6173L113.118 34.1393L111.26 32.4455L109.912 33.9235ZM111.811 34.1043C111.177 34.6226 110.478 34.9568 109.703 35.1175L110.109 37.0758C111.206 36.8483 112.199 36.3703 113.077 35.6524L111.811 34.1043ZM109.701 35.1178C108.947 35.2756 108.157 35.2441 107.317 35.0037L106.767 36.9265C107.893 37.2488 109.013 37.305 110.111 37.0755L109.701 35.1178ZM107.32 35.0046C106.519 34.7728 105.718 34.3131 104.917 33.5833L103.57 35.0613C104.554 35.9583 105.618 36.5939 106.764 36.9257L107.32 35.0046Z" fill="#FFEFDA" mask="url(#path-17-outside-9_120_15)"/>
<mask id="path-19-outside-10_120_15" maskUnits="userSpaceOnUse" x="111.6" y="35.402" width="21.9112" height="18.3158" fill="black">
<rect fill="white" x="111.6" y="35.402" width="21.9112" height="18.3158"/>
<path d="M113.25 44.941L127.898 37.6471L128.98 39.8214L126.768 40.9231L126.844 41.0757C127.702 40.9818 128.53 41.1722 129.33 41.6468C130.13 42.1214 130.748 42.7973 131.185 43.6747C131.267 43.84 131.367 44.0482 131.484 44.2993C131.601 44.5504 131.685 44.7427 131.735 44.8762L129.447 46.0159C129.428 45.9301 129.369 45.741 129.271 45.4486C129.183 45.1594 129.064 44.8655 128.915 44.5666C128.561 43.8546 128.095 43.2932 127.517 42.8825C126.95 42.475 126.324 42.239 125.642 42.1743C124.968 42.1128 124.301 42.2467 123.64 42.576L114.37 47.1916L113.25 44.941Z"/>
</mask>
<path d="M113.25 44.941L127.898 37.6471L128.98 39.8214L126.768 40.9231L126.844 41.0757C127.702 40.9818 128.53 41.1722 129.33 41.6468C130.13 42.1214 130.748 42.7973 131.185 43.6747C131.267 43.84 131.367 44.0482 131.484 44.2993C131.601 44.5504 131.685 44.7427 131.735 44.8762L129.447 46.0159C129.428 45.9301 129.369 45.741 129.271 45.4486C129.183 45.1594 129.064 44.8655 128.915 44.5666C128.561 43.8546 128.095 43.2932 127.517 42.8825C126.95 42.475 126.324 42.239 125.642 42.1743C124.968 42.1128 124.301 42.2467 123.64 42.576L114.37 47.1916L113.25 44.941Z" fill="#FFEFDA"/>
<path d="M113.25 44.941L112.804 44.0459L111.909 44.4916L112.354 45.3868L113.25 44.941ZM127.898 37.6471L128.793 37.2014L128.347 36.3062L127.452 36.752L127.898 37.6471ZM128.98 39.8214L129.426 40.7166L130.321 40.2709L129.876 39.3757L128.98 39.8214ZM126.768 40.9231L126.322 40.028L125.427 40.4737L125.873 41.3689L126.768 40.9231ZM126.844 41.0757L125.949 41.5215L126.26 42.1456L126.953 42.0698L126.844 41.0757ZM129.33 41.6468L129.84 40.7868L129.84 40.7868L129.33 41.6468ZM131.735 44.8762L132.181 45.7714L132.991 45.368L132.671 44.5218L131.735 44.8762ZM129.447 46.0159L128.47 46.2312L128.746 47.4819L129.892 46.911L129.447 46.0159ZM129.271 45.4486L128.315 45.7411L128.319 45.7538L128.323 45.7664L129.271 45.4486ZM127.517 42.8825L126.934 43.695L126.938 43.6974L127.517 42.8825ZM125.642 42.1743L125.736 41.1787L125.732 41.1784L125.642 42.1743ZM114.37 47.1916L113.475 47.6374L113.921 48.5325L114.816 48.0868L114.37 47.1916ZM113.695 45.8362L128.343 38.5423L127.452 36.752L112.804 44.0459L113.695 45.8362ZM127.003 38.0929L128.085 40.2672L129.876 39.3757L128.793 37.2014L127.003 38.0929ZM128.535 38.9263L126.322 40.028L127.214 41.8183L129.426 40.7166L128.535 38.9263ZM125.873 41.3689L125.949 41.5215L127.739 40.63L127.663 40.4774L125.873 41.3689ZM126.953 42.0698C127.578 42.0014 128.191 42.1337 128.82 42.5067L129.84 40.7868C128.87 40.2107 127.825 39.9623 126.735 40.0817L126.953 42.0698ZM128.82 42.5067C129.445 42.8777 129.934 43.4055 130.29 44.1204L132.08 43.2289C131.562 42.1892 130.815 41.365 129.84 40.7868L128.82 42.5067ZM130.29 44.1204C130.367 44.2753 130.462 44.4752 130.578 44.722L132.39 43.8767C132.271 43.6212 132.167 43.4046 132.08 43.2289L130.29 44.1204ZM130.578 44.722C130.692 44.9673 130.763 45.1327 130.8 45.2307L132.671 44.5218C132.606 44.3528 132.51 44.1335 132.39 43.8767L130.578 44.722ZM131.29 43.981L129.001 45.1207L129.892 46.911L132.181 45.7714L131.29 43.981ZM130.423 45.8006C130.391 45.6523 130.313 45.409 130.219 45.1309L128.323 45.7664C128.371 45.9087 128.407 46.0209 128.433 46.1051C128.462 46.1975 128.47 46.232 128.47 46.2312L130.423 45.8006ZM130.228 45.1561C130.121 44.8092 129.981 44.464 129.811 44.1209L128.02 45.0124C128.147 45.2669 128.244 45.5097 128.315 45.7411L130.228 45.1561ZM129.811 44.1209C129.392 43.28 128.824 42.5848 128.097 42.0676L126.938 43.6974C127.366 44.0017 127.73 44.4291 128.02 45.0124L129.811 44.1209ZM128.101 42.0701C127.392 41.5614 126.598 41.2604 125.736 41.1788L125.547 43.1698C126.05 43.2175 126.508 43.3886 126.934 43.695L128.101 42.0701ZM125.732 41.1784C124.857 41.0986 124.005 41.2768 123.194 41.6808L124.086 43.4711C124.597 43.2167 125.079 43.1271 125.551 43.1702L125.732 41.1784ZM123.194 41.6808L113.925 46.2965L114.816 48.0868L124.086 43.4711L123.194 41.6808ZM115.265 46.7459L114.145 44.4953L112.354 45.3868L113.475 47.6374L115.265 46.7459Z" fill="#FFEFDA" mask="url(#path-19-outside-10_120_15)"/>
<mask id="path-21-outside-11_120_15" maskUnits="userSpaceOnUse" x="116.863" y="55.0987" width="21.4832" height="18.7728" fill="black">
<rect fill="white" x="116.863" y="55.0987" width="21.4832" height="18.7728"/>
<path d="M119.296 65.2133C119.16 63.7424 119.39 62.4193 119.987 61.2441C120.585 60.076 121.485 59.1225 122.686 58.3835C123.888 57.6516 125.33 57.2076 127.013 57.0517C128.71 56.8944 130.221 57.0647 131.543 57.5627C132.867 58.0677 133.93 58.8394 134.732 59.8778C135.535 60.9232 136.005 62.1814 136.141 63.6524C136.278 65.1233 136.047 66.4429 135.449 67.611C134.852 68.7862 133.949 69.74 132.74 70.4726C131.532 71.2122 130.079 71.6607 128.381 71.818C126.698 71.9739 125.199 71.7991 123.882 71.2934C122.566 70.7948 121.507 70.0227 120.704 68.9773C119.901 67.939 119.432 66.6843 119.296 65.2133ZM121.545 65.0049C121.648 66.1223 122.02 67.0151 122.66 67.6834C123.299 68.3516 124.102 68.8158 125.067 69.0758C126.033 69.3358 127.06 69.4154 128.15 69.3145C129.239 69.2136 130.237 68.9463 131.146 68.5126C132.054 68.0789 132.765 67.4745 133.278 66.6994C133.791 65.9244 133.996 64.9781 133.892 63.8608C133.789 62.7434 133.414 61.8509 132.767 61.1833C132.12 60.5157 131.311 60.0522 130.338 59.7928C129.365 59.5335 128.334 59.4542 127.245 59.5551C126.156 59.6561 125.161 59.923 124.259 60.3561C123.358 60.7891 122.654 61.3928 122.148 62.1672C121.642 62.9417 121.441 63.8876 121.545 65.0049Z"/>
</mask>
<path d="M119.296 65.2133C119.16 63.7424 119.39 62.4193 119.987 61.2441C120.585 60.076 121.485 59.1225 122.686 58.3835C123.888 57.6516 125.33 57.2076 127.013 57.0517C128.71 56.8944 130.221 57.0647 131.543 57.5627C132.867 58.0677 133.93 58.8394 134.732 59.8778C135.535 60.9232 136.005 62.1814 136.141 63.6524C136.278 65.1233 136.047 66.4429 135.449 67.611C134.852 68.7862 133.949 69.74 132.74 70.4726C131.532 71.2122 130.079 71.6607 128.381 71.818C126.698 71.9739 125.199 71.7991 123.882 71.2934C122.566 70.7948 121.507 70.0227 120.704 68.9773C119.901 67.939 119.432 66.6843 119.296 65.2133ZM121.545 65.0049C121.648 66.1223 122.02 67.0151 122.66 67.6834C123.299 68.3516 124.102 68.8158 125.067 69.0758C126.033 69.3358 127.06 69.4154 128.15 69.3145C129.239 69.2136 130.237 68.9463 131.146 68.5126C132.054 68.0789 132.765 67.4745 133.278 66.6994C133.791 65.9244 133.996 64.9781 133.892 63.8608C133.789 62.7434 133.414 61.8509 132.767 61.1833C132.12 60.5157 131.311 60.0522 130.338 59.7928C129.365 59.5335 128.334 59.4542 127.245 59.5551C126.156 59.6561 125.161 59.923 124.259 60.3561C123.358 60.7891 122.654 61.3928 122.148 62.1672C121.642 62.9417 121.441 63.8876 121.545 65.0049Z" fill="#FFEFDA"/>
<path d="M119.987 61.2441L119.097 60.7885L119.096 60.791L119.987 61.2441ZM122.686 58.3835L122.166 57.5294L122.162 57.5318L122.686 58.3835ZM131.543 57.5627L131.9 56.6284L131.896 56.6268L131.543 57.5627ZM134.732 59.8778L135.525 59.2686L135.524 59.2663L134.732 59.8778ZM135.449 67.611L134.559 67.1553L134.557 67.1579L135.449 67.611ZM132.74 70.4726L132.221 69.6174L132.218 69.6197L132.74 70.4726ZM123.882 71.2934L124.241 70.3599L124.236 70.3583L123.882 71.2934ZM120.704 68.9773L121.497 68.3682L121.495 68.3659L120.704 68.9773ZM122.66 67.6834L123.382 66.9919L123.382 66.9919L122.66 67.6834ZM125.067 69.0758L124.807 70.0414L124.807 70.0414L125.067 69.0758ZM131.146 68.5126L131.577 69.415L131.577 69.415L131.146 68.5126ZM133.278 66.6994L134.112 67.2514L134.112 67.2514L133.278 66.6994ZM132.767 61.1833L133.485 60.4875L133.485 60.4875L132.767 61.1833ZM130.338 59.7928L130.595 58.8266L130.595 58.8266L130.338 59.7928ZM124.259 60.3561L123.826 59.4547L123.826 59.4547L124.259 60.3561ZM122.148 62.1672L122.986 62.7142L122.986 62.7142L122.148 62.1672ZM120.292 65.1211C120.171 63.8147 120.377 62.6843 120.879 61.6972L119.096 60.791C118.403 62.1543 118.149 63.67 118.3 65.3056L120.292 65.1211ZM120.877 61.6997C121.386 60.7069 122.153 59.8856 123.21 59.2352L122.162 57.5318C120.817 58.3593 119.785 59.4451 119.097 60.7885L120.877 61.6997ZM123.206 59.2376C124.254 58.5992 125.544 58.1921 127.105 58.0474L126.921 56.0559C125.116 56.2232 123.521 56.704 122.166 57.5294L123.206 59.2376ZM127.105 58.0474C128.683 57.9013 130.036 58.0639 131.191 58.4986L131.896 56.6268C130.405 56.0656 128.738 55.8875 126.921 56.0559L127.105 58.0474ZM131.187 58.497C132.353 58.9419 133.26 59.608 133.941 60.4892L135.524 59.2663C134.6 58.0709 133.381 57.1936 131.9 56.6284L131.187 58.497ZM133.939 60.4869C134.614 61.3651 135.025 62.4383 135.146 63.7446L137.137 63.5601C136.985 61.9245 136.457 60.4813 135.525 59.2686L133.939 60.4869ZM135.146 63.7446C135.267 65.0511 135.06 66.1768 134.559 67.1553L136.339 68.0666C137.034 66.709 137.289 65.1956 137.137 63.5601L135.146 63.7446ZM134.557 67.1579C134.051 68.1548 133.283 68.9742 132.221 69.6174L133.258 71.3278C134.614 70.5059 135.653 69.4175 136.34 68.064L134.557 67.1579ZM132.218 69.6197C131.164 70.2649 129.865 70.6762 128.289 70.8222L128.474 72.8137C130.293 72.6451 131.899 72.1596 133.262 71.3255L132.218 69.6197ZM128.289 70.8222C126.729 70.9668 125.388 70.8005 124.241 70.3599L123.524 72.2269C125.009 72.7976 126.668 72.9811 128.474 72.8137L128.289 70.8222ZM124.236 70.3583C123.082 69.9208 122.179 69.2563 121.497 68.3682L119.911 69.5865C120.835 70.7892 122.05 71.6687 123.528 72.2285L124.236 70.3583ZM121.495 68.3659C120.823 67.496 120.413 66.4275 120.292 65.1211L118.3 65.3056C118.452 66.9411 118.98 68.3819 119.913 69.5888L121.495 68.3659ZM120.549 65.0972C120.669 66.39 121.11 67.5109 121.937 68.3749L123.382 66.9919C122.93 66.5194 122.628 65.8546 122.54 64.9127L120.549 65.0972ZM121.937 68.3749C122.713 69.1856 123.68 69.7379 124.807 70.0414L125.327 68.1102C124.523 67.8937 123.885 67.5177 123.382 66.9919L121.937 68.3749ZM124.807 70.0414C125.898 70.3351 127.046 70.4211 128.242 70.3102L128.057 68.3187C127.075 68.4097 126.168 68.3366 125.327 68.1102L124.807 70.0414ZM128.242 70.3102C129.438 70.1994 130.553 69.9037 131.577 69.415L130.715 67.6101C129.922 67.9888 129.039 68.2278 128.057 68.3187L128.242 70.3102ZM131.577 69.415C132.635 68.9099 133.491 68.1902 134.112 67.2514L132.444 66.1475C132.04 66.7588 131.474 67.2479 130.715 67.6101L131.577 69.415ZM134.112 67.2514C134.775 66.2492 135.008 65.0641 134.888 63.7685L132.897 63.953C132.984 64.8922 132.807 65.5995 132.444 66.1475L134.112 67.2514ZM134.888 63.7685C134.768 62.4729 134.322 61.3508 133.485 60.4875L132.049 61.8791C132.506 62.351 132.81 63.0139 132.897 63.953L134.888 63.7685ZM133.485 60.4875C132.702 59.6789 131.728 59.1287 130.595 58.8266L130.08 60.7591C130.893 60.9757 131.539 61.3525 132.049 61.8791L133.485 60.4875ZM130.595 58.8266C129.499 58.5343 128.349 58.4486 127.153 58.5594L127.337 60.5509C128.319 60.4599 129.231 60.5326 130.08 60.7591L130.595 58.8266ZM127.153 58.5594C125.957 58.6703 124.845 58.9656 123.826 59.4547L124.692 61.2575C125.477 60.8805 126.356 60.6419 127.337 60.5509L127.153 58.5594ZM123.826 59.4547C122.774 59.9601 121.925 60.6807 121.311 61.6203L122.986 62.7142C123.384 62.1049 123.942 61.6181 124.692 61.2575L123.826 59.4547ZM121.311 61.6203C120.657 62.6215 120.429 63.8044 120.549 65.0972L122.54 64.9127C122.453 63.9707 122.628 63.2618 122.986 62.7142L121.311 61.6203Z" fill="#FFEFDA" mask="url(#path-21-outside-11_120_15)"/>
<mask id="path-23-outside-12_120_15" maskUnits="userSpaceOnUse" x="116.188" y="79.9564" width="24.7258" height="12.3389" fill="black">
<rect fill="white" x="116.188" y="79.9564" width="24.7258" height="12.3389"/>
<path d="M138.617 90.277L117.632 84.3061L118.32 81.8879L139.305 87.8587L138.617 90.277Z"/>
</mask>
<path d="M138.617 90.277L117.632 84.3061L118.32 81.8879L139.305 87.8587L138.617 90.277Z" fill="#FFEFDA"/>
<path d="M138.617 90.277L138.343 91.2388L139.305 91.5124L139.579 90.5506L138.617 90.277ZM117.632 84.3061L116.67 84.0325L116.396 84.9943L117.358 85.268L117.632 84.3061ZM118.32 81.8879L118.593 80.9261L117.632 80.6524L117.358 81.6142L118.32 81.8879ZM139.305 87.8587L140.267 88.1324L140.54 87.1706L139.579 86.8969L139.305 87.8587ZM138.891 89.3151L117.905 83.3443L117.358 85.268L138.343 91.2388L138.891 89.3151ZM118.593 84.5798L119.282 82.1616L117.358 81.6142L116.67 84.0325L118.593 84.5798ZM118.046 82.8497L139.031 88.8206L139.579 86.8969L118.593 80.9261L118.046 82.8497ZM138.343 87.5851L137.655 90.0033L139.579 90.5506L140.267 88.1324L138.343 87.5851Z" fill="#FFEFDA" mask="url(#path-23-outside-12_120_15)"/>
<mask id="path-25-outside-13_120_15" maskUnits="userSpaceOnUse" x="107.339" y="96.2213" width="22.7682" height="19.2513" fill="black">
<rect fill="white" x="107.339" y="96.2213" width="22.7682" height="19.2513"/>
<path d="M126.61 113.354L109.199 100.206L110.714 98.1995L128.125 111.348L126.61 113.354Z"/>
</mask>
<path d="M126.61 113.354L109.199 100.206L110.714 98.1995L128.125 111.348L126.61 113.354Z" fill="#FFEFDA"/>
<path d="M126.61 113.354L126.007 114.152L126.805 114.755L127.408 113.957L126.61 113.354ZM109.199 100.206L108.401 99.6032L107.798 100.401L108.596 101.004L109.199 100.206ZM110.714 98.1995L111.317 97.4015L110.519 96.7988L109.916 97.5969L110.714 98.1995ZM128.125 111.348L128.923 111.951L129.526 111.153L128.728 110.55L128.125 111.348ZM127.213 112.556L109.801 99.4079L108.596 101.004L126.007 114.152L127.213 112.556ZM109.997 100.809L111.512 98.8021L109.916 97.5969L108.401 99.6032L109.997 100.809ZM110.111 98.9975L127.523 112.146L128.728 110.55L111.317 97.4015L110.111 98.9975ZM127.327 110.745L125.812 112.752L127.408 113.957L128.923 111.951L127.327 110.745Z" fill="#FFEFDA" mask="url(#path-25-outside-13_120_15)"/>
<mask id="path-27-outside-14_120_15" maskUnits="userSpaceOnUse" x="86.5847" y="121.369" width="13.9161" height="9.75872" fill="black">
<rect fill="white" x="86.5847" y="121.369" width="13.9161" height="9.75872"/>
<path d="M89.5969 129.077L88.6646 126.927L97.4223 123.13L98.3546 125.28L89.5969 129.077Z"/>
</mask>
<path d="M89.5969 129.077L88.6646 126.927L97.4223 123.13L98.3546 125.28L89.5969 129.077Z" fill="#FFEFDA"/>
<path d="M89.5969 129.077L88.6794 129.475L89.0772 130.392L89.9947 129.995L89.5969 129.077ZM88.6646 126.927L88.2668 126.009L87.3493 126.407L87.7471 127.325L88.6646 126.927ZM97.4223 123.13L98.3398 122.732L97.942 121.814L97.0245 122.212L97.4223 123.13ZM98.3546 125.28L98.7524 126.197L99.6699 125.8L99.2721 124.882L98.3546 125.28ZM90.5144 128.679L89.5821 126.529L87.7471 127.325L88.6794 129.475L90.5144 128.679ZM89.0624 127.844L97.8201 124.047L97.0245 122.212L88.2668 126.009L89.0624 127.844ZM96.5048 123.527L97.4371 125.678L99.2721 124.882L98.3398 122.732L96.5048 123.527ZM97.9568 124.363L89.1991 128.16L89.9947 129.995L98.7524 126.197L97.9568 124.363Z" fill="#FFEFDA" mask="url(#path-27-outside-14_120_15)"/>
<path d="M80.2517 85.3005C80.2517 85.3005 75.7517 90.4405 65.8817 89.1105C56.0117 87.7805 51.8217 81.8405 51.8217 81.8405C51.8217 81.8405 63.3517 88.9605 70.9417 85.9005C78.5317 82.8405 82.0717 71.6505 70.5917 70.4405C70.5917 70.4405 79.3417 63.8205 84.9617 69.6905C90.5817 75.5605 86.1217 92.0705 70.8917 91.8605C70.8917 91.8705 77.8717 91.1705 80.2517 85.3005ZM94.7217 68.5605C92.2917 53.7705 80.7617 49.4905 71.0017 49.0205C61.2417 48.5505 53.5617 56.3005 53.4117 57.6505C53.2617 59.0005 55.1617 59.4905 55.1617 59.4905H55.0717C54.2679 59.7482 53.5453 60.2113 52.9753 60.8339C52.4053 61.4565 52.0077 62.2171 51.8217 63.0405C51.1817 66.5205 56.0017 64.8105 56.0017 64.8105C55.4417 65.1626 54.9571 65.6223 54.5761 66.163C54.195 66.7038 53.925 67.3147 53.7817 67.9605C53.6588 68.5533 53.6646 69.1656 53.7987 69.756C53.9327 70.3463 54.192 70.901 54.5588 71.3826C54.9257 71.8642 55.3917 72.2614 55.9252 72.5474C56.4588 72.8334 57.0476 73.0016 57.6517 73.0405C60.6517 73.2805 63.5917 67.0405 63.5917 67.0405C62.4417 69.3505 63.5917 71.1205 65.4517 71.2905C67.3117 71.4605 69.1217 70.7205 71.2817 67.2205C73.4417 63.7205 87.8417 60.6005 90.0017 72.7105C92.1617 84.8205 79.3417 91.5705 79.3417 91.5705C83.0017 91.8105 97.1517 83.3405 94.7217 68.5605ZM48.1217 75.5605C51.5617 76.5105 50.5517 70.2805 50.5517 70.2805C50.5517 70.2805 44.5817 73.7605 48.1217 75.5705V75.5605ZM62.3917 73.8805C62.3917 73.8805 58.5517 77.0605 61.3017 78.1905C64.2917 78.5805 62.3917 73.8905 62.3917 73.8905V73.8805ZM49.5117 61.1105C49.5117 61.1105 46.8217 61.0105 47.2017 62.2905C47.8217 63.5505 49.5117 61.1105 49.5117 61.1105Z" fill="#E1BF92"/>
</svg>
