<svg width="321" height="345" viewBox="0 0 321 345" fill="none" xmlns="http://www.w3.org/2000/svg">
<g opacity="0.1">
<path d="M192.019 271.026L192.019 271.035C191.811 293.827 190.321 317.014 186.119 340.5H121.743C131.666 318.318 138.56 293.148 143.405 267.412C149.358 236.806 151.402 204.842 152.504 173.052L152.504 173.041C153.468 143.109 152.514 112.955 150.603 82.8538C155.356 80.8939 160.571 80.3455 165.594 81.2017C172.887 110.816 179.306 140.787 183.815 171.29C188.537 204.066 192.4 237.063 192.019 271.026Z" stroke="black" stroke-width="9"/>
<path d="M189.184 69.3444L178.641 71.6493L187.69 77.5123L187.693 77.5137L187.695 77.5152L187.695 77.5155L187.698 77.5172L187.742 77.5464C187.788 77.5777 187.867 77.6307 187.974 77.705C188.189 77.8537 188.519 78.0877 188.945 78.4056C189.799 79.042 191.034 80.0115 192.498 81.3029C195.433 83.8926 199.241 87.737 202.736 92.7421C208.129 100.466 212.749 110.887 212.326 123.841C211.369 122.332 210.324 120.71 209.204 119.008C203.396 110.179 195.464 99.0216 187.163 90.1093C173.39 75.3223 149.907 75.0454 135.588 89.1891L138.751 92.3907L135.588 89.1892C135.211 89.562 134.839 89.9402 134.473 90.3238L134.472 90.324C126.871 98.2849 121.603 108.579 119.807 119.956L119.806 119.961C119.103 124.446 118.504 129.115 118.117 133.767C117.521 132.122 116.933 130.408 116.37 128.637C111.795 114.254 109.136 97.2175 114.712 83.7697L118.981 73.4754L108.761 77.9193L110.556 82.046C108.761 77.9193 108.759 77.9202 108.757 77.9212L108.751 77.9239L108.734 77.931L108.684 77.9532C108.668 77.9602 108.65 77.9683 108.63 77.9774C108.597 77.9919 108.559 78.009 108.515 78.0289C108.373 78.0934 108.171 78.1861 107.914 78.3076C107.399 78.5505 106.661 78.9087 105.73 79.3869C103.868 80.343 101.232 81.7804 98.0598 83.7369C91.7209 87.6468 83.2118 93.6495 74.4695 102.055C59.5208 116.427 43.8478 137.875 37.2668 167.848C37.0237 167.134 36.78 166.399 36.537 165.643C33.2214 155.335 30.1034 141.474 30.6574 126.928C31.2094 112.435 35.3935 97.3947 46.5546 84.3778C57.7275 71.3472 76.2686 59.9053 106.346 53.3304L120.139 50.3155L107.146 44.7928L105.385 48.9342C107.146 44.7928 107.144 44.7923 107.143 44.7917L107.139 44.79L107.127 44.7851L107.089 44.7689C107.056 44.7552 107.011 44.736 106.952 44.7115C106.833 44.6624 106.662 44.5918 106.441 44.5017C105.997 44.3214 105.349 44.0626 104.513 43.7396C102.84 43.0939 100.411 42.1911 97.3473 41.1469C91.2234 39.0597 82.5432 36.4005 72.282 34.0996C57.7288 30.8363 39.7976 28.2479 21.3842 29.1402C30.736 24.449 42.8935 19.4068 56.2786 16.5079C70.6575 13.3937 86.2083 12.8076 101.141 17.571C115.988 22.3068 130.581 32.4401 142.982 51.3976L146.59 56.9135L150.411 51.5469L150.412 51.5466L150.413 51.5445L150.415 51.5418L150.438 51.5096C150.461 51.4784 150.497 51.4279 150.548 51.359C150.649 51.2213 150.805 51.0097 151.016 50.731C151.438 50.1735 152.075 49.3477 152.918 48.3056C154.603 46.2204 157.104 43.2757 160.327 39.8857C166.791 33.0892 176.082 24.5879 187.468 17.6187C198.855 10.649 212.178 5.30684 226.77 4.58364C238.826 3.98613 251.966 6.52817 265.849 14.2153C265.194 14.4008 264.514 14.5951 263.811 14.798C256.526 16.8992 246.693 19.9349 236.547 23.6651C226.429 27.3852 215.86 31.8464 207.164 36.8239C202.815 39.3135 198.832 41.9901 195.58 44.8399C192.359 47.662 189.626 50.8523 188.098 54.4245L184.356 63.1703L193.488 60.5166L193.489 60.5165L193.491 60.5159L193.497 60.5139L193.547 60.4997C193.595 60.4862 193.671 60.4649 193.775 60.4364C193.982 60.3794 194.3 60.2938 194.72 60.1853C195.561 59.9682 196.813 59.6596 198.418 59.3043C201.632 58.5932 206.252 57.6977 211.826 56.9746C223.009 55.5236 237.853 54.79 252.81 57.5206C267.747 60.2476 282.571 66.383 294.091 78.4869C303.639 88.5194 311.206 102.954 314.499 123.7C313.884 123.072 313.242 122.423 312.573 121.754C305.409 114.592 295.143 105.181 282.746 96.2138C258.153 78.4249 224.203 61.6885 189.184 69.3444Z" fill="#553711" stroke="black" stroke-width="9"/>
</g>
</svg>
