<svg width="416" height="310" viewBox="0 0 416 310" fill="none" xmlns="http://www.w3.org/2000/svg">
<path d="M336.702 130.026C327.362 128 317.711 127.878 308.326 129.668C298.941 131.457 290.014 135.121 282.078 140.441C275.915 144.359 270.626 149.508 266.541 155.566C264.513 158.505 263.087 161.818 262.345 165.313C261.603 168.808 261.56 172.416 262.218 175.929C264.928 189.464 277.077 194.621 287.797 199.173C292.675 201.026 297.346 203.39 301.729 206.225C308.996 211.568 314.137 219.317 316.236 228.093C317.648 234.61 318.326 241.264 318.257 247.93C318.306 250.477 318.134 253.01 317.966 255.535C317.455 260.291 317.549 265.094 318.245 269.828C318.843 273.898 320.307 277.793 322.539 281.249C324.771 284.705 327.718 287.641 331.181 289.857C335.044 291.929 339.276 293.218 343.635 293.65C347.995 294.082 352.396 293.649 356.586 292.374C357.828 292.044 359.047 291.661 360.238 291.229C368.089 288.608 374.77 283.313 379.121 276.267C382.181 270.234 383.452 263.449 382.785 256.713C381.527 243.698 378.543 230.907 373.91 218.678C369.726 207.573 366.898 196.003 365.488 184.221C365.243 181.152 365.166 178.057 365.088 174.966C364.984 170.963 364.877 166.827 364.414 162.727C363.9 154.883 360.996 147.382 356.093 141.238C350.939 135.586 344.166 131.669 336.702 130.026ZM357.291 163.528C357.722 167.315 357.819 171.115 357.92 175.141C358.002 178.365 358.087 181.588 358.347 184.789C359.805 197.141 362.746 209.274 367.106 220.924C371.543 232.552 374.41 244.719 375.631 257.103C376.245 262.474 375.288 267.905 372.877 272.738C368.735 279.189 362.225 283.75 354.751 285.436C348.157 287.511 341.008 286.89 334.865 283.707C332.3 281.986 330.123 279.747 328.475 277.133C326.826 274.52 325.742 271.59 325.294 268.533C324.716 264.384 324.656 260.18 325.115 256.018C325.296 253.292 325.475 250.554 325.423 247.8C325.487 240.584 324.736 233.383 323.183 226.335C320.668 215.907 314.535 206.709 305.879 200.382C301.077 197.237 295.951 194.618 290.59 192.569C280.191 188.151 271.21 184.34 269.244 174.523C268.78 171.909 268.836 169.231 269.41 166.64C269.983 164.05 271.062 161.599 272.585 159.428C276.132 154.215 280.712 149.788 286.04 146.422C290.406 143.537 295.099 141.182 300.021 139.405C311.179 135.193 323.329 134.351 334.967 136.983C340.981 138.3 346.456 141.415 350.665 145.915C354.606 150.979 356.917 157.122 357.291 163.528ZM335.271 88.6326C333.304 89.111 331.492 90.0871 330.011 91.4675C329.035 87.6408 326.713 84.2933 323.473 82.0394C320.232 79.7855 316.289 78.7763 312.368 79.1969C310.556 79.7036 308.883 80.6142 307.474 81.8606C306.064 83.1069 304.955 84.6568 304.229 86.3939C302.709 84.1968 300.591 82.4834 298.126 81.4586C295.661 80.4338 292.954 80.1408 290.329 80.6147C288.245 81.221 286.347 82.3388 284.805 83.8668C283.264 85.3948 282.128 87.2844 281.502 89.3641C281.235 90.1616 281.019 90.975 280.854 91.7995C279.581 90.4807 278.174 89.2975 276.658 88.2689C273.931 86.3944 270.842 85.1157 267.59 84.5161C264.338 83.9165 260.998 84.0095 257.786 84.7891C251.284 86.6935 245.799 91.0931 242.526 97.0299C239.253 102.967 238.457 109.96 240.31 116.487C241.912 123.195 245.966 129.061 251.673 132.927C254.399 134.802 257.488 136.081 260.739 136.681C263.99 137.281 267.33 137.188 270.542 136.408C271.326 136.216 272.1 135.981 272.859 135.706C276.97 134.109 280.579 131.443 283.314 127.981C286.049 124.52 287.811 120.39 288.417 116.017C289.923 117.45 291.754 118.496 293.753 119.064C295.751 119.632 297.857 119.705 299.889 119.278C300.268 119.185 300.642 119.071 301.009 118.939C302.572 118.313 303.996 117.383 305.198 116.204C306.4 115.025 307.358 113.62 308.016 112.069C309.535 114.269 311.654 115.986 314.121 117.013C316.587 118.041 319.297 118.335 321.925 117.861C322.294 117.771 322.657 117.66 323.014 117.529C324.716 116.892 326.246 115.864 327.48 114.529C328.798 117.693 331.138 120.323 334.126 121.999C337.113 123.675 340.574 124.3 343.956 123.773C344.354 123.677 344.747 123.558 345.133 123.418C346.878 122.737 348.463 121.703 349.788 120.379C351.114 119.056 352.152 117.472 352.837 115.728C354.489 111.599 354.771 107.046 353.641 102.741C353.015 98.4593 350.746 94.5892 347.315 91.9543C343.884 89.3194 339.563 88.1277 335.271 88.6326ZM281.066 106.425C282.481 111.106 281.987 116.156 279.692 120.469C277.397 124.783 273.489 128.01 268.821 129.443C266.574 129.979 264.24 130.034 261.969 129.606C259.699 129.178 257.543 128.277 255.643 126.96C251.428 124.086 248.439 119.738 247.265 114.771C245.974 110.359 246.345 105.627 248.308 101.473C250.271 97.3198 253.689 94.0335 257.914 92.2379C258.436 92.0484 258.967 91.8868 259.506 91.7539C261.753 91.2179 264.088 91.1621 266.358 91.5901C268.629 92.018 270.784 92.9201 272.684 94.2376C276.9 97.1102 279.89 101.458 281.066 106.425ZM302.182 98.2005C303.982 105.487 301.604 111.392 298.165 112.314C294.82 113.139 289.836 108.978 288.033 101.693C287.161 98.4409 287.234 95.0079 288.246 91.7984C288.499 90.9138 288.933 90.092 289.522 89.3857C290.111 88.6793 290.84 88.1041 291.664 87.6968C291.791 87.6511 291.919 87.612 292.05 87.5795C295.394 86.7549 300.378 90.9153 302.182 98.2005ZM324.221 96.7827C325.093 100.035 325.019 103.468 324.008 106.677C323.749 107.63 323.27 108.509 322.609 109.242C321.948 109.975 321.124 110.542 320.204 110.896C316.86 111.721 311.875 107.561 310.072 100.275C308.338 93.2445 310.576 87.4165 313.738 86.2706C313.853 86.2289 313.97 86.1939 314.089 86.1619C317.433 85.3372 322.418 89.4975 324.221 96.7827ZM346.686 104.457C347.431 107.256 347.273 110.218 346.237 112.92C345.909 113.831 345.379 114.654 344.685 115.328C343.992 116.002 343.154 116.508 342.235 116.809C338.399 117.756 333.958 113.697 332.537 107.95C331.793 105.151 331.951 102.189 332.986 99.4867C333.295 98.6583 333.767 97.9003 334.373 97.2575C334.979 96.6147 335.708 96.0999 336.516 95.7436C336.672 95.6866 336.831 95.6378 336.991 95.5973C340.824 94.6517 345.266 98.7108 346.686 104.457Z" fill="#4F4941" fill-opacity="0.3"/>
<path d="M51.3447 98.2685C56.7065 90.3565 63.6067 83.6084 71.6335 78.4268C79.6604 73.2452 88.6494 69.7363 98.0644 68.1094C105.229 66.6923 112.61 66.7686 119.746 68.3336C123.242 69.061 126.561 70.4741 129.51 72.4915C132.459 74.5088 134.98 77.0904 136.928 80.0872C144.307 91.7529 139.074 103.868 134.457 114.561C132.205 119.269 130.457 124.202 129.24 129.279C127.668 138.161 129.296 147.316 133.833 155.116C137.309 160.807 141.41 166.09 146.06 170.868C147.782 172.744 149.655 174.459 151.519 176.17C155.171 179.26 158.418 182.801 161.18 186.707C163.557 190.065 165.185 193.895 165.955 197.936C166.724 201.977 166.617 206.136 165.641 210.13C164.276 214.295 162.102 218.148 159.245 221.469C156.389 224.79 152.904 227.514 148.993 229.483C147.865 230.101 146.719 230.666 145.559 231.175C138.069 234.696 129.579 235.475 121.568 233.378C115.19 231.124 109.588 227.091 105.422 221.755C97.3501 211.468 90.6828 200.151 85.5964 188.104C80.9611 177.179 75.0234 166.855 67.9127 157.355C65.9727 154.965 63.8915 152.672 61.8151 150.381C59.1278 147.412 56.3514 144.345 53.857 141.059C48.8156 135.027 45.7415 127.595 45.0494 119.764C44.8788 112.117 47.078 104.608 51.3447 98.2685ZM59.5649 136.723C61.8663 139.761 64.4182 142.578 67.1237 145.561C69.2894 147.951 71.4518 150.343 73.4727 152.838C80.9422 162.784 87.1868 173.594 92.071 185.034C96.8845 196.511 103.206 207.295 110.868 217.101C114.13 221.411 118.571 224.681 123.652 226.515C131.101 228.325 138.959 227.133 145.532 223.196C151.736 220.147 156.481 214.764 158.73 208.221C159.399 205.205 159.43 202.083 158.819 199.053C158.208 196.024 156.971 193.156 155.186 190.634C152.741 187.233 149.883 184.149 146.678 181.454C144.666 179.605 142.647 177.748 140.785 175.719C135.758 170.541 131.332 164.811 127.592 158.638C122.216 149.356 120.307 138.467 122.205 127.914C123.51 122.324 125.412 116.892 127.878 111.71C132.355 101.335 136.225 92.3791 130.872 83.9181C129.405 81.7065 127.515 79.8066 125.313 78.3276C123.11 76.8485 120.638 75.8195 118.037 75.2996C111.873 73.9745 105.504 73.9311 99.3248 75.1722C94.1743 76.0977 89.1524 77.6317 84.3643 79.742C73.3821 84.3939 64.0077 92.1696 57.4021 102.106C53.9583 107.21 52.146 113.242 52.2053 119.403C52.8481 125.788 55.4148 131.828 59.5649 136.723ZM23.8151 67.324C25.5691 66.3126 27.5535 65.769 29.5785 65.7454C27.644 62.3024 27.0139 58.2779 27.8037 54.4104C28.5935 50.5429 30.7504 47.0916 33.8785 44.6899C35.5393 43.8063 37.3787 43.3106 39.2589 43.2398C41.1392 43.1691 43.0115 43.5252 44.7357 44.2815C44.319 41.6429 44.6699 38.9408 45.7465 36.4981C46.8231 34.0554 48.5799 31.9754 50.8069 30.5067C52.7331 29.5076 54.8787 29.0063 57.0488 29.0482C59.2188 29.0902 61.3446 29.6742 63.2331 30.7471C63.9763 31.1403 64.6943 31.5796 65.3829 32.0623C65.3942 30.2292 65.5953 28.4025 65.9832 26.6113C66.6626 23.3734 68.0161 20.3158 69.9556 17.6379C71.8951 14.96 74.3771 12.7218 77.2396 11.0694C83.2593 7.9606 90.2647 7.35969 96.7305 9.39749C103.196 11.4353 108.599 15.9468 111.762 21.9495C115.232 27.9095 116.346 34.9527 114.883 41.6891C114.205 44.9269 112.852 47.9844 110.913 50.6621C108.974 53.3399 106.493 55.5777 103.63 57.2297C102.93 57.6319 102.208 57.9961 101.469 58.3207C97.3921 60.0019 92.9399 60.5627 88.5718 59.9452C84.2037 59.3278 80.0782 57.5544 76.6214 54.8084C76.5207 56.8849 75.9172 58.9052 74.863 60.6954C73.8087 62.4855 72.3353 63.9919 70.5696 65.0847C70.2311 65.2791 69.8824 65.4553 69.525 65.6124C67.962 66.2379 66.2905 66.5479 64.6066 66.5245C62.9228 66.5011 61.2598 66.1448 59.7133 65.476C60.1329 68.1168 59.7837 70.8218 58.7075 73.2675C57.6312 75.7131 55.8735 77.7959 53.6447 79.2664C53.3154 79.4558 52.9758 79.6266 52.6275 79.7783C50.9555 80.4916 49.1396 80.8034 47.3248 80.6888C48.5537 83.8882 48.6754 87.4067 47.6702 90.681C46.6651 93.9553 44.5913 96.7963 41.7807 98.7492C41.4254 98.9543 41.059 99.1395 40.6831 99.304C38.9509 100.016 37.09 100.361 35.2173 100.318C33.3446 100.275 31.5006 99.8452 29.801 99.0551C25.7555 97.2074 22.4094 94.1071 20.2569 90.2119C17.7548 86.6811 16.7267 82.314 17.3912 78.0395C18.0558 73.765 20.3605 69.9205 23.8151 67.324ZM75.3227 42.7931C77.5289 47.1572 81.3711 50.4709 86.0087 52.0093C90.6463 53.5476 95.7017 53.1853 100.069 51.0017C102.065 49.8388 103.793 48.2679 105.14 46.3913C106.488 44.5146 107.426 42.3745 107.892 40.11C108.96 35.1218 108.122 29.912 105.544 25.5074C103.433 21.4231 99.8992 18.2548 95.6123 16.6035C91.3254 14.9521 86.5838 14.9326 82.2871 16.5487C81.7787 16.7717 81.2826 17.0216 80.8007 17.2973C78.8049 18.4599 77.0768 20.0307 75.7288 21.9073C74.3809 23.784 73.4435 25.9243 72.9778 28.1889C71.9091 33.1773 72.7456 38.3874 75.3227 42.7931ZM54.3649 51.4133C58.0904 57.9285 63.8862 60.5612 67.0118 58.8553C70.0013 57.1441 70.7373 50.6935 67.0149 44.1766C65.4019 41.2211 62.9792 38.7877 60.0323 37.1629C59.2389 36.6971 58.3572 36.4023 57.4438 36.2974C56.5303 36.1925 55.6053 36.2797 54.7279 36.5536C54.6049 36.6077 54.4848 36.6682 54.368 36.7347C51.3784 38.4459 50.6425 44.8965 54.3649 51.4133ZM37.4365 65.5966C39.0495 68.5521 41.4722 70.9855 44.4191 72.6103C45.264 73.1214 46.217 73.4266 47.2011 73.501C48.1851 73.5754 49.1726 73.417 50.0836 73.0387C53.0731 71.3276 53.8091 64.8769 50.0867 58.36C46.4892 52.0753 40.8476 49.402 37.7689 50.7544C37.6568 50.8036 37.5475 50.8594 37.4396 50.9182C34.4504 52.629 33.7141 59.0797 37.4365 65.5966ZM26.4744 86.6542C27.8672 89.1935 30.0249 91.2285 32.64 92.4691C33.5053 92.9017 34.4576 93.1313 35.4245 93.1403C36.3913 93.1493 37.3473 92.9376 38.2196 92.5212C41.6494 90.5592 42.0624 84.5567 39.1246 79.4174C37.7312 76.8786 35.5736 74.8437 32.959 73.6025C32.1638 73.2162 31.2996 72.993 30.4172 72.9461C29.5349 72.8992 28.6523 73.0295 27.8214 73.3295C27.6693 73.3958 27.5208 73.47 27.3764 73.5518C23.9498 75.5125 23.5368 81.5152 26.4744 86.6542Z" fill="#4F4941" fill-opacity="0.3"/>
</svg>
